<svg width="358" height="189" viewBox="0 0 358 189" fill="none" xmlns="http://www.w3.org/2000/svg">
<rect width="358" height="189" rx="20.4135" fill="#F5F5F7"/>
<path fill-rule="evenodd" clip-rule="evenodd" d="M136.639 83.575C137.353 90.7884 138.068 98.002 138.782 105.215C142.672 102.996 146.561 100.776 150.451 98.5568V114.99V119.31C150.451 119.692 150.224 121.005 150.451 121.336C150.643 121.616 152.069 121.624 152.406 121.672C154.605 121.98 156.81 122.254 159.017 122.497C164.835 123.14 171.063 124.061 176.903 123.322C181.98 122.68 186.902 120.875 191.541 118.773C193.169 118.036 194.775 117.246 196.351 116.402C196.685 116.224 197.898 115.801 198.079 115.437C198.228 115.14 197.88 114.095 197.833 113.782C197.637 112.464 197.441 111.146 197.245 109.828L194.508 91.4226L199.679 96.5866C200.084 96.9911 200.853 98.1397 201.414 98.319C201.825 98.4505 202.843 98.0436 203.249 97.9654C206.177 97.4011 209.105 96.8368 212.034 96.2727C212.716 96.1412 214.253 96.1462 214.828 95.734C215.138 95.5119 215.152 95.0603 215.262 94.6323C215.976 91.8343 216.69 89.0365 217.404 86.2387C217.533 85.7348 218.251 84.1458 218.068 83.6383C218.003 83.4564 217.686 83.332 217.492 83.2133C213.073 80.5142 208.653 77.8149 204.234 75.1156C201.813 73.6369 199.392 72.1582 196.971 70.6796C195.957 70.0601 194.711 68.9441 193.562 68.5976C192.849 68.3824 191.811 68.5436 191.073 68.5224C189.573 68.4796 188.073 68.4368 186.573 68.394C186.338 68.3874 185.515 68.2199 185.318 68.3583C185.153 68.4734 185.221 68.634 185.168 68.9084C185.036 69.5785 185.035 70.3012 184.97 70.9816C184.917 71.5276 185.021 72.5287 184.775 73.0229C184.618 73.3387 184.817 73.2129 184.605 73.3656C184.351 73.5473 183.543 73.4888 183.242 73.5237C181.772 73.6945 180.302 73.8652 178.832 74.036C177.085 74.2388 175.318 74.6198 173.562 74.4443C170.9 74.1786 168.03 74.1917 165.417 73.631C164.737 73.4852 164.493 73.1026 163.969 72.5794C162.946 71.5583 161.934 70.5252 160.9 69.5148C160.393 69.0197 160.61 69.1036 160.088 69.2915C159.433 69.5267 158.769 70.0946 158.177 70.4555C155.906 71.8384 153.636 73.2212 151.366 74.6041L137.506 83.0466C137.217 83.2229 136.928 83.3988 136.639 83.575Z" fill="#8ACEFF"/>
<path fill-rule="evenodd" clip-rule="evenodd" d="M269.206 84.4717C266.349 95.3187 260.603 107.146 249.026 110.603C246.212 111.444 243.473 112.078 240.55 111.758C240.272 111.728 240.039 111.767 239.774 111.772C239.3 111.781 239.71 111.951 239.178 111.787C238.763 111.659 238.375 111.339 237.943 111.197C236.794 110.822 235.57 110.749 234.402 110.445C231.534 109.699 228.577 108.778 225.798 107.748C224.489 107.264 223.286 106.589 222.055 105.94C220.803 105.28 219.477 104.871 218.211 104.266C217.211 103.787 215.498 103.164 214.795 102.267C214.045 101.31 215.082 99.2734 215.379 98.2563C216.387 94.7954 217.588 91.3852 218.346 87.8554C220.962 90.8881 224.594 92.7662 228.354 93.9775C230.394 94.6347 232.493 95.1099 234.615 95.4073C236.541 95.6771 238.62 96.0038 240.551 95.6206C242.009 95.3313 243.839 94.6612 244.88 93.5485C245.251 93.1513 245.697 92.423 245.489 91.8461C245.225 91.1135 244.455 91.4584 244.038 90.9117C243.675 90.4356 243.732 89.3219 243.616 88.7421C243.411 87.716 243.13 86.718 242.787 85.7302C242.121 83.8123 241.291 81.8901 241.092 79.8493C240.919 78.0787 241.322 76.4043 242.206 74.868C242.623 74.1416 243.671 72.1658 244.694 72.2478C245.818 72.3379 244.303 77.0726 244.253 78.0384C244.057 81.867 244.57 85.9466 246.535 89.3024C247.287 90.5874 248.375 92.0834 249.981 92.2426C251.682 92.4111 253.055 91.0725 253.864 89.7183C255.84 86.4141 254.844 81.8804 253.843 78.4173C252.616 74.1686 249.412 71.24 247.386 67.4243C250.411 67.7283 252.03 69.6496 253.583 72.0872C255.292 74.7707 256.622 77.9929 257.278 81.1154C257.609 82.693 257.38 84.2772 257.383 85.8703C257.383 86.3996 257.383 88.3523 258.246 88.2753C259.168 88.1931 259.485 85.9909 259.62 85.3191C259.931 83.7782 260.267 82.2371 260.537 80.6886C261.015 77.9488 261.228 75.1427 261.8 72.422C261.896 71.9621 262.089 70.686 262.778 71.0305C263.308 71.2958 263.223 73.2694 263.243 73.7282C263.29 74.8587 263.357 75.989 263.366 77.1207C263.38 78.7979 263.046 80.5339 263.21 82.2009C263.317 83.2902 263.901 84.4936 264.626 83.0247C265.345 81.568 265.491 79.7511 265.892 78.1845C266.313 76.5397 266.747 74.8706 267.641 73.4098C267.889 73.0044 268.155 72.361 268.706 72.5516C269.106 72.6903 269.401 73.6388 269.525 73.9736C270.083 75.4864 269.988 77.1684 269.953 78.7521C269.91 80.6927 269.702 82.5903 269.206 84.4717ZM213.493 87.2866C213.341 87.2372 212.692 87.1758 212.531 87.1617C212.343 87.1453 212.557 86.7978 212.101 86.8967C212.189 87.115 212.345 87.2606 212.57 87.3338C211.884 87.5659 211.378 86.9927 210.909 86.9189C210.46 86.8483 210.441 86.9189 209.998 87.3929C209.518 86.8076 209.608 87.1727 209.213 87.1729C209.07 87.1731 209.064 87.39 208.83 87.364C208.626 87.3411 208.604 87.0318 208.484 86.9954C207.829 86.7971 207.155 87.7942 206.413 86.9294C206.233 87.8292 204.171 86.702 203.378 86.8602C202.547 87.0256 202.905 87.3238 202.233 86.8143C201.593 86.3288 201.772 86.6513 201.027 87.0485C201.044 87.0392 200.607 87.335 200.647 87.3397C200.132 87.2794 200.161 86.7463 199.508 86.7747C198.817 86.8047 198.522 87.3464 197.89 86.6798C197.752 87.1791 197.724 86.9639 197.399 87.0897C197.221 87.1322 197.065 87.0852 196.932 86.9494C196.891 87.0866 196.802 87.1708 196.664 87.2017C196.311 87.2334 195.649 87.2825 195.328 87.1126C194.847 86.8574 195.234 86.7594 194.9 86.4725C194.751 87.2637 194.423 87.0955 193.732 87.1693C193.204 87.2258 193.088 87.064 192.585 86.9854C192.089 86.9079 191.448 87.1005 190.964 87.1824C190.764 87.2165 190.496 87.3557 190.293 87.3068C190.11 87.2627 190.031 87.1205 189.922 87.0833C189.789 87.0385 189.817 86.9222 189.588 86.866C189.429 86.8274 189.146 86.9758 188.988 87.0016C187.86 87.1846 186.776 87.1865 185.7 86.7428C186.23 87.6741 184.461 87.1712 184.146 86.7857C183.752 87.4031 183.275 86.9672 182.481 87.0154C181.716 87.0619 180.565 87.2961 180.255 86.3434C180.194 86.5369 179.76 87.099 179.587 87.1848C179.086 87.4334 179.026 87.0657 178.56 86.916C177.925 86.712 178.058 87.099 177.664 87.1777C177 87.3106 176.641 86.8429 176.054 86.5943C176.029 86.9808 176.016 87.2187 175.682 87.4593C175.386 86.3815 174.329 87.5475 174.511 86.107C174.109 86.3686 173.543 86.5698 173.429 87.099C174.101 86.9141 173.5 87.3535 173.472 87.3681C173.384 87.4145 173.083 86.9932 173.014 86.9339C172.995 87.1326 172.976 87.3314 172.957 87.5301C172.689 87.3962 172.438 87.1565 172.22 87.0364C172.024 86.9282 172.305 86.703 171.974 86.6875C171.8 86.6791 171.618 87.0568 171.435 87.089C171.155 87.1381 171.289 86.7366 171.172 86.7501C170.994 86.7706 170.703 87.0316 170.568 87.0266C170.126 87.0101 170.425 86.8042 170.088 86.7099C169.484 86.5409 169.523 86.9355 169.089 87.0778C168.097 87.4036 168.197 85.9046 167.187 86.9043C166.946 87.1436 166.79 87.513 166.46 87.4922C165.774 87.4493 166.015 86.6372 166.154 86.2395C166.298 86.3105 163.651 87.6702 163.672 87.6171C163.689 87.2909 164.105 87.0395 163.733 86.7499C163.429 87.4026 163.108 87.4141 162.407 87.5356C162.066 87.5947 161.999 87.6736 161.634 87.5318C161.401 87.4417 161.245 87.0709 161.014 87.0504C161.045 87.0533 160.621 87.3762 160.556 87.4053C160.173 87.5778 159.931 87.3821 159.559 87.4532C159.241 87.5137 159.116 87.7834 158.801 87.7096C158.379 87.6112 158.627 87.1081 158.047 87.2484C157.849 87.2963 157.73 87.6781 157.418 87.757C156.931 87.8802 156.335 87.6505 155.821 87.7703C155.413 87.8657 155.11 87.9059 154.753 87.9257C154.464 87.9419 154.583 87.7177 154.052 87.9824L153.827 87.415C153.561 87.654 153.295 87.8928 153.03 88.1318C152.979 87.9176 152.947 87.7008 152.934 87.481C152.538 87.878 152.038 87.9457 151.506 87.9815C150.929 88.0201 150.499 88.1459 149.938 88.2515C149.76 88.2846 149.303 88.3377 149.157 88.2758C149.179 88.2848 148.884 88.1623 148.973 88.1857C148.935 88.1078 148.899 88.0287 148.866 87.9481C148.817 87.7241 148.656 87.7143 148.384 87.9186C148.243 87.8969 147.97 87.7122 147.829 87.7577C147.467 87.875 147.517 88.1559 147.156 88.1147C146.922 88.0878 146.802 87.742 146.558 87.7184C146.185 87.6826 145.862 88.1001 145.526 88.1912C146.548 87.9138 144.201 88.129 144.931 88.1481C144.452 88.1357 143.955 88.1118 143.513 88.3263C143.269 88.1593 143.566 87.8235 143.319 87.6853C143.095 87.5599 143.078 87.8909 143.051 87.8983C143.193 87.8583 143.122 88.14 142.981 88.19C142.54 88.3461 142.188 87.9493 142.165 87.5556C141.791 88.1187 141.686 87.8923 141.136 87.9271C140.593 87.9615 140.125 88.246 139.582 88.2408C138.509 88.2305 137.78 87.8573 137.422 86.8986C138.566 87.038 139.717 86.3024 140.836 86.4756C141.204 86.5326 141.433 86.8088 141.755 86.7597C142.152 86.6994 142.43 86.2664 142.938 86.2197C144.061 86.117 145.167 86.2171 146.298 86.045C147.648 85.8393 149.056 85.7176 150.419 85.8177C151.473 85.8951 152.325 85.4924 153.393 85.4149C154.774 85.3144 156.167 85.2965 157.55 85.224C158.971 85.1494 160.501 84.9226 161.918 84.9953C162.361 85.0179 162.742 85.0613 163.181 85.0348C163.366 85.0236 163.542 84.8976 163.737 84.9164C163.991 84.9409 164.1 85.2007 164.363 85.1916C164.811 85.1764 165.289 84.8077 165.821 84.7977C166.695 84.7813 167.566 84.7832 168.442 84.7334C169.214 84.6895 170.041 84.5094 170.81 84.5191C171.352 84.5258 171.485 84.9876 171.801 85.0353C172.369 85.1209 175.242 83.4861 175.49 84.9533C176.986 83.9298 178.992 84.7965 180.656 84.6042C182.795 84.3571 184.973 84.5773 187.126 84.4893C189.317 84.3997 191.571 84.4827 193.754 84.6893C194.658 84.7748 195.531 84.8551 196.438 84.8032C196.842 84.7801 197.309 84.6769 197.713 84.7701C197.811 84.7927 198.56 85.3158 198.467 85.3308C198.877 84.9633 198.6 84.9095 199.32 84.8907C199.875 84.8761 200.4 84.996 200.952 85.0286C201.943 85.0873 202.941 84.95 203.93 84.9802C204.755 85.0055 205.562 85.1273 206.392 85.1332C207.287 85.1397 208.343 85.1649 208.99 85.8861C208.922 85.6597 208.854 85.4333 208.785 85.2069C209.784 85.285 210.77 85.6413 211.78 85.4747C211.524 85.7192 211.265 85.9192 211.167 86.2778C211.712 86.2087 212.08 85.8289 212.653 85.8258C213.135 85.8229 213.235 86.0643 213.743 85.7524C213.806 86.1346 213.868 86.5168 213.931 86.8989C214.634 86.7332 214.173 86.2085 214.224 85.7354C214.796 85.9073 215.28 85.7099 215.055 86.5328C214.881 87.1672 214.089 87.4798 213.493 87.2866ZM212.504 94.3531C212.259 95.0425 210.136 94.6486 209.634 94.5756C208.986 94.4817 208.244 94.3328 207.647 94.2589C207.575 94.1634 207.489 94.0823 207.389 94.0156C207.314 94.1202 207.219 94.1946 207.104 94.2382C206.83 94.2982 206.829 94.5814 206.469 94.5187C206.452 94.9376 206.743 94.6996 206.966 94.8516C206.404 95.2281 206.661 94.7946 206.346 94.8015C206.268 94.6907 206.159 94.6474 206.019 94.6712C205.842 94.7172 205.678 94.7932 205.528 94.8993C205.388 95.0475 205.268 95.0551 205.167 94.9224C205.072 94.8259 204.954 94.7663 204.816 94.7436C204.263 94.8337 204.108 95.0792 203.485 95.0391C202.594 94.9817 201.631 95.2164 200.755 95.0928C200.212 95.0163 199.304 94.1629 199.058 94.9948C198.682 94.3781 198.084 93.9584 197.724 93.3283C199.399 93.2316 201.073 93.1163 202.75 93.0557C204.217 93.0028 205.823 93.168 207.194 93.0989C208.479 93.034 209.84 92.892 211.151 92.7748C212.542 92.6506 213.002 92.9556 212.504 94.3531ZM168.811 94.4548C169.419 94.6231 169.998 94.2415 170.588 94.3621C170.783 94.4019 171.187 94.757 171.276 94.7639C171.438 94.777 171.915 94.4284 172.12 94.3817C173.416 94.0869 174.985 94.1183 176.28 94.2994C176.966 94.3952 177.072 94.0812 177.671 93.9286C178.293 93.7699 179.178 93.8922 179.834 93.8483C181.376 93.7451 182.918 93.8185 184.45 93.7058C186.023 93.59 187.588 93.5273 189.162 93.4463C190.233 93.3913 192.809 92.7798 193.698 93.5755C194.43 94.2315 193.486 95.3706 192.754 95.6306C192.206 95.8246 191.943 95.4157 191.536 95.4547C191.073 95.4991 191.235 96.0465 190.821 95.5389C190.565 96.0436 188.955 95.8284 188.493 95.8618C187.487 95.9345 186.636 96.1363 185.952 95.1981C185.998 95.4686 186.045 95.7393 186.091 96.0098C185.183 95.5246 184.209 95.68 183.421 95.8491C183.031 95.9328 181.833 96.5114 181.41 96.2619C181.12 96.0903 181.632 95.7967 181.142 95.6502C180.884 95.5734 180.44 96.0005 180.126 95.979C179.256 95.9192 179.503 95.3344 178.649 96.0786C178.36 95.8284 178.263 95.403 178.301 95.0382C177.681 95.5675 177.733 96.4497 176.623 96.2881C176.21 96.228 176.134 95.8062 175.918 95.7286C175.459 95.5627 175.407 95.8608 175.009 96.0967C174.859 96.1856 174.676 96.3289 174.499 96.3467C174.136 96.383 174.079 96.2161 174.029 96.2216C173.787 96.2483 173.483 96.371 173.196 96.2833C172.939 96.2045 172.863 95.7505 172.41 95.8565C171.976 95.9583 171.973 96.2531 172.051 96.6942C171.623 96.6499 171.365 96.4115 171.045 96.1535C170.721 96.9072 170.041 96.2829 169.665 96.9189C169.174 96.3336 168.86 96.4947 168.252 95.923C168.282 96.1616 168.312 96.4001 168.341 96.6387C167.867 96.5471 167.656 96.2126 167.251 96.6553C166.858 95.9233 165.666 96.9663 165.054 96.2593C164.781 97.1548 162.977 96.9406 162.214 96.9561C161.539 96.9699 161.039 96.9146 160.379 97.0714C159.795 97.2101 158.987 97.3538 158.438 97.2904C158.08 97.249 157.688 97.1832 157.242 97.2318C156.598 97.3016 156.042 97.6348 155.375 97.4773C154.371 97.2399 153.755 95.9209 154.873 95.3416C155.639 94.945 157.018 95.0918 157.86 95.0187C159.256 94.8974 160.821 94.6431 162.218 94.7587C163.309 94.849 164.303 94.5887 165.415 94.4789C166.253 94.3962 167.625 94.2473 168.172 95.0773C168.381 94.8349 168.36 94.3299 168.811 94.4548ZM153.529 105.817C153.379 105.071 159.761 104.66 160.395 104.611C161.725 104.508 163.058 104.435 164.392 104.401C165.487 104.373 166.51 104.583 167.606 104.414C168.63 104.257 169.866 103.935 170.757 104.66C170.888 103.669 174.729 104.152 175.46 104.155C178.642 104.166 181.686 104.173 184.764 103.976C186.523 103.864 188.39 103.712 190.149 103.8C190.943 103.84 191.582 104.051 192.371 103.868C192.885 103.748 193.44 103.499 193.932 103.851C194.508 104.263 194.754 105.663 194.358 106.247C194.069 106.673 193.813 106.625 193.351 106.552C192.641 106.439 192.114 106.275 191.39 106.563C191.507 106.516 190.905 106.651 190.955 106.647C190.135 106.708 189.011 107.281 188.304 106.621C188.587 106.67 188.999 106.165 188.642 106.123C188.374 106.092 188.204 106.379 187.995 106.476C187.279 106.805 186.913 106.702 186.486 106.011C185.625 106.757 185.532 106.551 185.154 105.633C184.863 105.857 184.8 106.387 184.571 106.561C184.537 106.587 184.678 106.909 184.512 106.896C184.359 106.884 184.308 106.632 184.19 106.612C184.115 106.599 184.076 106.379 184.003 106.365C183.925 106.351 183.845 106.492 183.756 106.488C183.519 106.476 182.842 106.98 183.085 106.273C182.727 106.729 182.572 106.439 182.443 106.023C182.029 106.338 181.615 106.653 181.2 106.968C181.008 106.432 180.676 106.578 180.259 106.765C180.385 106.393 180.306 106.041 179.991 106.3C179.809 106.45 179.686 106.925 179.499 107.127C178.743 106.361 178.468 106.571 177.424 106.671C177.025 106.709 176.529 106.782 176.173 106.541C175.86 106.33 175.683 105.553 175.147 106.18C175.267 106.041 175.08 107.113 175.047 107.283C174.811 107.124 174.61 106.928 174.445 106.696C174.137 107.306 173.328 106.759 172.665 106.883C171.621 107.08 170.544 107.41 169.623 106.634C169.557 106.884 168.802 107.204 168.801 107.213C168.846 106.77 169.126 106.926 168.554 106.841C168.449 106.826 168.329 107.015 168.23 107.036C167.889 107.106 167.49 107.04 167.146 107.03C165.716 106.989 164.407 107.305 162.995 107.42C162.519 107.459 161.955 107.535 161.508 107.356C161.047 107.17 161.06 106.96 160.594 107.08C160.741 107.042 160.303 107.503 160.327 107.485C160.264 107.531 160.003 107.306 159.91 107.323C159.883 107.421 159.856 107.519 159.829 107.617C159.716 107.604 159.604 107.59 159.492 107.576C159.185 107.617 158.908 107.306 158.619 107.296C158.672 107.298 157.841 107.607 157.879 107.626C157.298 107.337 157.465 107.421 156.728 107.597C156.032 107.763 155.339 107.725 154.625 107.829C152.547 108.13 153.785 107.089 153.529 105.817ZM151.694 116.205C151.304 115.65 152.343 115.459 152.675 115.41C153.221 115.329 153.945 115.49 154.309 115.403C154.863 115.271 155.398 114.957 156.022 114.871C156.809 114.763 157.603 114.746 158.393 114.679C158.657 114.656 158.983 114.565 159.239 114.581C159.62 114.604 159.779 114.805 160.087 114.807C160.611 114.809 161.259 114.478 161.796 114.417C162.485 114.339 163.181 114.303 163.872 114.269C165.33 114.196 166.773 114.226 168.23 114.224C168.895 114.223 170.665 113.534 170.996 114.307C171.457 113.721 172.639 113.801 173.298 113.784C174.458 113.754 175.606 113.642 176.766 113.588C177.759 113.542 178.868 113.755 179.843 113.606C180.38 113.524 180.558 113.352 181.167 113.429C181.62 113.487 182.31 113.248 182.699 113.353C182.679 113.348 183.184 113.661 183.026 113.671C183.2 113.66 183.189 113.781 183.381 113.727C183.632 113.656 183.517 113.34 184.038 113.228C184.85 113.053 185.933 113.255 186.777 113.21C187.596 113.167 188.413 113.148 189.233 113.152C189.61 113.153 190.077 113.063 190.444 113.137C190.624 113.173 191.006 113.408 191.158 113.384C191.59 113.317 191.81 113.017 192.394 113.035C193.056 113.056 193.652 113.047 194.31 112.997C194.947 112.948 195.05 112.857 195.365 113.387C195.678 113.913 195.765 114.598 195.189 114.956C195.563 114.931 196.023 115.432 195.582 115.71C195.31 115.881 194.763 115.494 194.437 115.522C194.035 115.557 193.719 115.769 193.282 115.782C192.822 115.796 192.355 115.912 191.901 115.921C191.429 115.93 191.071 115.719 190.623 115.809C190.229 115.888 190.187 116.211 189.712 115.928C189.476 115.786 189.436 115.263 189.114 115.259C188.683 115.252 188.855 115.809 188.607 116.067C188.54 115.271 187.925 116.589 187.68 115.622C187.455 115.943 186.62 116.393 186.216 116.134C185.847 115.899 185.969 115.367 185.816 114.983C185.56 115.673 184.874 116.388 184.936 115.133C184.603 115.543 183.703 115.478 183.928 116.196C183.657 116.191 183.593 115.803 183.364 115.774C183.167 115.749 183.01 115.9 182.98 115.898C183.088 115.907 182.657 116.05 182.651 116.052C182.942 115.992 181.809 115.891 182.002 115.893C181.739 115.891 181.417 116.106 181.109 116.106C180.829 116.105 180.55 115.995 180.274 115.963C179.557 115.881 179.706 116.039 179.256 116.264C179.089 116.347 179.047 116.489 178.81 116.471C178.635 116.458 178.57 116.23 178.55 116.228C178.305 116.203 178.486 116.121 178.104 116.159C178.061 116.234 178.017 116.309 177.973 116.384C177.835 116.561 177.657 116.605 177.437 116.517C176.873 116.638 175 117.163 175.183 116.191C174.896 116.331 174.61 116.471 174.323 116.612C174.199 115.828 172.64 116.867 172.292 116.92C171.845 116.987 171.804 116.815 171.382 116.724C171.306 116.708 171.153 116.959 170.975 116.923C170.511 116.83 170.429 116.783 170.349 116.28C170.019 116.898 169.744 116.622 169.145 116.723C169.012 116.746 168.927 117.007 168.737 116.962C168.6 116.929 168.596 116.679 168.502 116.646C168.416 116.617 168.429 116.419 168.304 116.391C168.16 116.358 167.67 116.76 167.529 116.822C167.212 116.962 166.691 117.194 166.381 117.124C165.998 117.039 166.168 116.755 165.627 116.787C164.774 116.837 164.418 117.563 163.887 116.419C163.647 116.877 163.678 117.002 163.293 117.153C163.008 117.265 162.288 117.148 161.913 117.134C160.314 117.075 158.741 117.62 157.155 117.477C156.458 117.415 155.87 117.275 155.166 117.389C154.427 117.509 153.704 117.686 152.954 117.757C152.573 117.793 151.776 117.902 151.589 117.415C151.424 116.985 152.038 116.693 151.694 116.205ZM154.831 133.802C152.757 135.19 151.038 137.085 149.133 138.69C147.223 140.299 145.708 142.087 143.99 143.869C142.402 145.516 140.944 147.074 139.024 148.319C137.809 149.107 136.725 150.076 135.477 150.819C134.543 151.375 133.127 152.107 133.583 150.405C134.05 148.662 134.913 146.9 135.662 145.271C136.727 142.957 137.801 140.663 138.953 138.392C139.386 137.539 139.629 136.69 140.316 136.01C141.063 135.271 141.586 134.305 142.405 133.606C145.848 130.667 151.037 132.938 154.831 133.802ZM161.339 134.799C160.398 135.292 159.345 135.414 158.347 135.74C157.497 136.018 156.707 136.512 155.793 136.549C156.625 135.924 157.34 135.075 158.278 134.601C159.333 134.068 160.291 134.456 161.339 134.799ZM202.644 138.91C199.183 137.742 195.96 136.021 192.589 134.636C192.007 134.396 187.455 132.897 187.547 132.184C190.737 131.6 194.022 130.597 197.219 131.69C200.128 132.685 202.494 135.07 204.745 137.067C205.333 137.588 208.966 139.961 208.641 140.716C208.416 141.24 206.665 141.097 206.252 140.99C205.718 140.851 205.41 140.527 204.991 140.171C204.291 139.576 203.516 139.204 202.644 138.91ZM196.254 119.396C196.78 118.912 197.095 118.178 197.597 117.732C198.242 117.158 199.284 117.438 199.989 117.736C202.106 118.63 203.915 120.134 206.018 121.067C208.35 122.101 210.368 123.483 212.47 124.908C214.392 126.21 216.471 127.287 218.432 128.53C220.431 129.796 222.669 130.619 224.696 131.841C226.758 133.084 228.813 134.332 230.795 135.702C234.329 138.145 238.008 140.653 240.623 144.126C241.967 145.911 243.225 147.936 244.211 149.941C245.107 151.763 246.08 154.293 244.918 156.189C243.803 158.009 241.901 159.443 240.292 160.802C239.682 161.316 239.102 161.941 238.312 162.164C237.351 162.435 236.23 162.36 235.242 162.44C229.958 162.868 225.035 162.464 219.828 161.519C214.807 160.608 209.765 160.098 204.705 159.464C201.851 159.107 198.997 158.691 196.181 158.096C194.978 157.842 193.753 157.548 192.575 157.202C191.547 156.899 190.682 156.233 189.624 155.969C185.136 154.848 180.001 154.419 175.558 152.534C179.49 150.9 183.668 149.913 187.698 148.555C191.94 147.126 196.082 145.927 200.553 145.521C202.853 145.312 204.912 144.724 207.125 144.11C209.234 143.524 211.436 143.344 213.602 143.081C214.565 142.965 217.314 143.14 217.634 141.88C218.109 140.006 215.408 139.789 214.256 139.957C212.623 140.195 211.276 140.603 210.026 139.263C208.749 137.894 207.509 136.493 206.209 135.142C203.8 132.637 201.316 129.739 197.91 128.615C193.754 127.244 188.935 128.546 184.789 129.325C180.409 130.149 176.037 130.938 171.739 132.135C169.96 132.63 167.665 133.723 165.818 133.547C163.997 133.374 161.935 133.076 160.177 132.551C159.381 132.314 158.726 131.874 158.014 131.463C157.088 130.929 156.073 130.587 155.091 130.173C153.103 129.334 151.166 128.561 149.021 128.231C147.216 127.954 145.298 127.789 143.548 128.422C141.832 129.043 140.311 130.307 139.113 131.658C137.812 133.126 136.737 134.77 135.67 136.41C135.158 137.197 134.533 137.883 134.003 138.653C133.558 139.299 133.298 140.017 132.827 140.644C131.773 142.049 131.057 143.846 130.418 145.481C129.709 147.296 128.92 149.455 129.089 151.429C129.154 152.176 129.22 153.164 129.509 153.856C129.876 154.736 130.4 154.714 131.155 155.046C132.452 155.616 132.815 157.193 134.491 156.885C136.063 156.597 137.426 155.302 138.573 154.27C140.067 152.924 141.498 151.506 142.928 150.092C144.396 148.642 145.842 147.033 147.01 145.326C147.469 144.655 147.828 143.896 148.371 143.284C149.062 142.505 149.839 142.411 150.779 142.101C158.992 139.387 167.246 136.769 175.716 134.978C177.745 134.548 179.791 133.994 181.785 133.423C183.899 132.817 184.994 133.457 186.739 134.611C190.384 137.021 194.693 138.719 198.753 140.292C200.031 140.787 202.066 140.818 203.065 141.795C197.142 142.697 191.498 144.435 185.786 146.165C182.969 147.017 180.12 147.757 177.293 148.572C174.465 149.388 171.744 150.445 168.955 151.365C166.179 152.28 163.245 152.654 160.442 153.498C157.581 154.36 154.732 154.953 151.795 155.477C148.829 156.006 145.884 156.617 142.908 157.09C141.546 157.307 140.184 157.532 138.836 157.831C137.518 158.123 136.244 158.822 134.919 158.984C129.002 159.708 123.201 161.321 117.307 162.233C112.906 162.914 105.25 163.863 102.396 159.448C99.526 155.008 103.047 149.828 106.188 146.653C108.14 144.68 110.334 142.943 112.636 141.398C115.099 139.745 117.469 137.96 119.933 136.309C125.508 132.573 131.554 129.525 137.545 126.523C140.42 125.082 143.198 123.537 145.995 121.955C147.383 121.17 148.151 122.437 149.249 123.298C150.112 123.975 151.697 125.644 152.904 124.872C152.95 125.15 152.997 125.428 153.044 125.706C153.397 125.545 153.751 125.384 154.105 125.222C154.342 125.846 154.315 126.233 154.978 126.56C155.386 126.761 156.256 127.003 156.644 126.649C156.724 126.895 156.803 127.141 156.882 127.387C157.222 127.361 157.287 126.389 157.351 126.161C157.934 127.012 158.739 127.722 159.762 127.963C159.767 127.907 159.596 127.209 159.603 127.204C159.927 127.006 160.335 127.855 160.507 128.037C161.076 128.639 161.415 128.545 162.044 128.059C162.09 128.109 162.303 128.664 162.333 128.654C162.47 128.611 162.728 128.119 162.756 128.074C162.717 128.721 163.966 128.852 164.408 128.713C164.309 128.523 164.21 128.334 164.111 128.144C165.648 127.939 166.251 129.572 167.726 129.489C168.817 129.427 167.942 129.189 168.559 128.722C169.098 128.314 169.195 129.206 169.247 129.178C169.35 129.07 169.43 128.946 169.487 128.807C169.686 129.571 171.275 130.257 171.111 129C171.736 129.25 172.179 129.665 172.871 129.752C173.712 129.859 174.61 129.68 175.448 129.611C177.256 129.461 178.959 129.092 180.588 128.264C181.554 127.773 182.582 127.328 183.49 126.735C184.25 126.24 185.691 124.735 186.703 125.383C186.444 124.619 187.663 125.327 187.702 124.343C187.898 124.49 188.094 124.638 188.29 124.786C188.407 124.528 188.374 124.122 188.532 123.898C188.748 123.589 188.853 123.771 189.038 123.597C189.244 123.404 189.424 122.884 189.671 122.736C189.925 122.583 190.225 122.765 190.499 122.632C190.916 122.429 192.711 120.45 192.407 122.146C193.179 121.884 192.584 121.644 192.68 121.13C192.874 120.099 193.345 120.841 193.814 120.931C194.583 121.078 194.568 120.443 194.996 119.981C195.387 119.559 196.123 119.37 195.87 118.638C196.159 118.794 196.221 119.099 196.254 119.396ZM149.924 97.3867C149.318 98.0611 148.865 97.7728 148.192 97.6739C148.119 97.4325 147.996 97.3991 147.822 97.5735C147.623 97.6882 147.408 97.7637 147.179 97.7997C146.627 97.9358 146.053 97.8778 145.513 98.084C145.529 97.9031 145.719 97.5816 145.597 97.3979C145.029 97.7906 144.677 98.0406 143.98 98.048C143.415 98.054 142.423 97.6224 141.954 98.1383C141.939 97.9374 141.925 97.7368 141.91 97.5359C141.681 97.6503 141.481 97.8035 141.311 97.9956C141.278 97.6979 141.261 97.473 141.064 97.2323C140.691 98.0001 140.282 98.0182 139.556 97.7249C139.658 97.7658 138.83 97.2809 138.862 97.4153C138.601 96.3129 142.731 96.4039 143.164 96.3603C144.247 96.2509 145.33 96.1875 146.414 96.0877C147.443 95.9931 148.21 95.8327 148.922 96.6908C148.605 95.4514 151.606 95.5129 149.924 97.3867ZM102.57 78.1652C102.683 80.039 103.1 82.0307 102.372 83.8342C101.786 85.2839 100.618 86.921 99.3589 87.8671C96.7817 89.804 94.5971 87.4338 94.2384 84.8289C93.8645 82.112 94.6057 78.7922 96.9452 77.1169C98.3431 76.116 99.6967 76.1853 101.306 76.5144C101.684 76.5919 102.298 76.5621 102.514 76.9377C102.565 77.0256 102.519 78.1635 102.57 78.1652ZM136.8 103.131C136.355 103.356 135.889 103.487 135.496 103.793C135.36 103.899 135.313 104.141 135.169 104.23C134.906 104.393 134.529 104.285 134.255 104.42C133.801 104.641 133.475 104.959 132.935 105.164C132.134 105.467 131.431 105.884 130.673 106.279C129.411 106.937 128.056 107.502 126.736 108.038C126.07 108.309 124.227 108.836 124.291 109.811C124.142 109.852 123.99 109.526 123.679 109.551C123.251 109.587 122.687 110.081 122.244 110.203C121.414 110.43 120.772 110.45 120.772 111.507C120.508 111.328 120.441 110.889 120.089 110.831C119.694 110.765 119.528 111.192 119.211 111.324C118.839 111.481 118.376 111.331 118.007 111.497C117.845 111.668 117.666 111.817 117.469 111.944C117.268 111.967 117.069 111.961 116.87 111.925C116.087 112.091 115.366 112.386 114.581 112.539C113.816 112.688 113.292 112.743 113.614 113.647C112.795 113.807 112.595 112.939 111.672 113.257C110.54 113.646 109.483 113.926 108.301 114.164C107.699 114.285 107.069 114.555 106.462 114.618C106.029 114.664 105.625 114.509 105.199 114.557C104.685 114.615 104.272 114.853 103.74 114.861C103.236 114.87 102.706 114.78 102.211 114.691C102.281 114.89 102.368 115.082 102.474 115.265C102.131 115.193 101.973 114.781 101.683 114.72C101.378 114.656 101.105 114.971 100.851 114.901C100.743 114.871 100.815 114.538 100.622 114.475C100.446 114.417 100.371 114.485 100.197 114.458C100.138 114.449 99.4077 114.409 99.2913 114.471C99.0878 114.579 99.2937 114.781 99.2533 114.811C98.5661 115.319 98.5578 115.045 98.2514 114.514C97.8016 113.734 97.2591 114.226 96.4415 114.089C95.5304 113.937 94.8125 114.339 93.9157 114.282C92.9484 114.22 91.8116 113.497 90.9564 113.074C89.1096 112.161 87.3087 111.297 85.7578 109.915C82.7259 107.213 80.2593 103.889 78.805 100.084C77.2424 95.9969 76.9463 91.7338 77.0717 87.3974C77.1472 84.7894 77.3559 82.183 77.767 79.6055C78.05 77.8325 78.1093 74.6819 80.1081 73.8745C80.4518 78.0258 79.3674 82.2559 80.0513 86.3803C80.2571 87.6226 80.7594 89.2779 81.7098 90.198C83.1169 91.5599 83.4461 89.5912 83.5735 88.5036C83.8103 86.484 84.2504 84.4753 84.562 82.4652C84.8733 80.4558 85.0932 78.424 85.5262 76.4358C85.684 75.7109 86.9569 70.4021 87.8911 70.6535C87.7022 74.5155 87.2002 78.311 87.1804 82.1873C87.1726 83.742 87.0333 85.3842 87.2578 86.9286C87.3732 87.7234 88.097 90.0557 89.3419 89.8612C90.4939 89.6813 89.2274 88.0384 89.1198 87.405C88.8349 85.7281 89.1981 83.6417 89.4637 81.9771C89.9664 78.8272 91.088 75.601 92.9212 72.9687C94.5631 70.6116 97.0911 68.3677 100.137 68.7833C101.438 68.9611 102.453 69.2842 103.107 70.4724C103.62 71.4049 105.641 72.4644 104.469 73.6319C103.403 74.6947 101.679 73.844 100.494 73.5907C99.0431 73.2804 97.4881 73.6536 96.2747 74.5038C94.1927 75.9623 93.0062 78.5698 92.6189 81.0153C92.097 84.3128 93.4922 92.9437 98.6313 91.0094C102.045 89.7242 104.617 85.1015 104.33 81.5625C104.215 80.1457 103.661 77.4562 105.621 77.0737C108.132 76.5838 108.487 79.3519 108.233 81.1507C107.863 83.7673 106.48 86.2004 104.898 88.2691C103.519 90.0721 101.916 91.1996 100.256 92.6887C99.765 93.1296 98.5121 94.1207 98.7225 94.9407C98.9531 95.8394 100.922 96.0948 101.711 96.2426C105.611 96.9728 110.01 96.301 113.904 95.7912C121.908 94.7432 129.806 92.1618 136.369 87.416C136.634 90.3524 136.968 93.279 137.091 96.2261C137.151 97.6567 137.166 99.108 137.329 100.531C137.43 101.406 137.794 102.628 136.8 103.131ZM114.608 113.363C114.293 113.527 114.633 112.533 114.546 112.862C115.015 113.03 115.036 113.197 114.608 113.363ZM147.808 77.8263C148.307 77.2765 149.67 75.9687 150.102 77.2098C150.263 76.6808 150.284 75.8972 150.905 76.6117C151.152 75.734 153.881 75.8162 154.557 75.7774C156.72 75.6537 158.893 75.5874 161.049 75.3725C165.48 74.9309 169.988 75.1587 174.435 75.1442C175.398 75.1411 176.359 75.0889 177.314 75.2285C178.237 75.3634 179.206 75.7416 180.147 75.6034C180.983 75.4804 181.531 75.25 182.391 75.3486C183.421 75.4666 184.42 75.5505 185.459 75.5467C190.053 75.53 194.646 75.7161 199.241 75.7233C200.137 75.7247 201.21 75.5498 202.05 75.9301C202.361 76.0712 202.701 76.5404 202.939 76.5919C203.212 76.6507 203.05 76.2256 203.414 76.4177C203.903 76.6746 203.525 77.4648 203.202 77.5901C203.395 77.5151 202.853 77.4412 202.907 77.4383C202.65 77.4522 202.431 77.6495 202.154 77.6371C201.734 77.6187 201.381 77.3621 201.042 77.1362C201.036 77.2284 201.223 77.8435 201.01 77.8744C200.827 77.9014 200.655 77.2949 200.637 77.1538C199.609 78.0606 198.52 77.5551 197.244 77.67C196.339 77.7515 194.453 78.3551 193.821 77.4105C193.795 77.6114 193.714 77.7872 193.58 77.9381C193.399 78.2128 193.243 78.1895 193.112 77.8673C193.067 77.8694 192.627 77.965 192.619 77.9643C192.309 77.9397 191.908 77.8287 191.594 77.8018C191.107 77.7603 191.196 78.1147 190.808 78.1204C190.597 78.1235 190.056 77.8175 189.687 77.7984C189.047 77.7651 188.394 78.0365 187.762 77.9543C187.328 77.8978 186.935 77.5442 186.509 77.5303C185.977 77.5127 185.805 77.9178 185.384 77.3487C185.298 77.3254 185.245 77.6602 185.21 77.6659C185.219 77.6645 184.81 77.725 184.761 77.7439C184.677 77.776 184.351 77.9257 184.251 77.9274C184.036 77.9314 183.919 77.7775 183.692 77.7739C183.315 77.7674 182.112 78.0992 182.146 77.4021C180.801 77.9004 179.653 77.7062 178.273 77.8239C177.64 77.8783 177.242 77.7934 176.64 77.6771C175.885 77.5315 175.384 77.7145 174.631 77.7515C173.908 77.787 173.68 77.481 173.07 77.2048C172.829 77.0959 172.67 76.9522 172.375 77.0127C172.207 77.0473 172.326 77.3309 172.276 77.3502C172.017 77.4503 171.836 77.3442 171.48 77.3685C170.824 77.4133 170.562 77.9621 169.887 77.4469C170.111 77.4198 170.336 77.3921 170.56 77.3649C169.915 77.0914 169.063 76.9517 169.219 77.9481C168.669 77.8709 169.145 77.496 168.875 77.3618C168.604 77.2279 168.301 77.4522 167.96 77.563C167.06 77.8549 166.31 77.71 165.371 77.6576C164.305 77.598 161.81 78.4681 161.047 77.3385C161.024 77.5766 160.768 78.2398 160.428 78.2086C160.317 78.1983 160.626 77.4944 160.661 77.4198C160.486 77.7927 159.687 77.8635 159.293 78.057C159.337 77.8566 159.381 77.6562 159.425 77.456C159.06 77.8454 158.882 77.6078 158.452 77.7379C158.264 77.7949 157.991 78.1828 157.83 78.2062C157.643 77.9888 157.407 77.8954 157.124 77.9257C156.935 77.8785 156.746 77.8692 156.558 77.898C155.802 77.9529 155.114 78.3725 154.363 78.0868C153.712 77.8389 153.461 77.2019 153.073 78.2155C152.971 78.0353 152.869 77.8551 152.767 77.675C152.641 77.8706 152.515 78.066 152.389 78.2615C151.897 77.9393 151.867 77.7527 151.301 77.8711C151.168 77.924 151.032 77.9166 150.892 77.8487C150.859 77.9481 150.826 78.0472 150.792 78.1464C150.779 78.3959 150.705 78.4783 150.57 78.3935C150.457 78.3527 150.355 78.291 150.263 78.2081C149.889 78.2367 149.41 78.3353 149.008 78.2808C148.853 78.26 147.88 77.7465 147.808 77.8263ZM159.271 71.1178C159.315 71.1854 159.359 71.2531 159.403 71.3208C158.795 71.642 158.652 71.4576 158.589 70.8127C158.886 70.8184 158.937 71.3411 159.271 71.1178ZM159.648 70.7393C159.941 70.8685 160.276 71.1223 160.552 70.7822C160.738 71.322 159.359 72.0586 159.648 70.7393ZM161.539 70.9776C162.154 71.3932 160.679 71.0591 160.682 71.0599C160.947 70.8151 161.232 70.7877 161.539 70.9776ZM166.827 68.6606C167.038 69.7244 167.62 69.6941 168.558 69.1996C169.927 68.4783 170.158 67.297 170.254 65.8865C170.345 64.5341 170.511 64.0105 171.905 64.2929C172.879 64.49 173.702 64.3244 174.684 64.2972C175.731 64.2684 176.1 64.4283 176.184 65.5059C176.269 66.5849 176.46 67.4042 177.243 68.2254C178.04 69.0602 179.101 69.5588 180.136 70.0258C180.668 70.2658 181.167 70.5241 181.756 70.5761C181.984 70.5963 183.171 70.4462 183.196 70.8218C183.214 71.1042 181.57 71.9006 181.396 71.9954C180.634 72.4101 179.873 72.7821 179.041 73.0333C177.125 73.6114 175.093 73.6455 173.109 73.6104C169.909 73.5542 165.487 72.2009 163.574 69.3622C164.658 69.1284 165.743 68.8944 166.827 68.6606ZM166.54 59.4474C166.034 59.0225 165.706 58.3808 165.286 57.8777C165.074 57.6239 164.918 57.5431 164.716 57.4161C164.504 57.2824 164.384 57.4717 164.207 57.1573C163.748 56.3449 165.162 55.2018 163.663 54.8891C163.156 54.7831 161.935 55.1851 161.786 54.4583C161.577 53.4305 163.539 53.3633 164 52.8416C164.918 51.8045 164.295 50.0463 164.854 48.8497C165.383 47.7164 166.749 47.515 167.827 47.1745C169.329 46.7002 170.85 46.4252 172.375 46.0456C173.441 45.7804 175.213 44.7144 176.202 45.6562C174.676 45.9951 175.563 46.527 176.58 46.8272C177.733 47.1675 178.954 47.3003 180.148 47.3951C181.377 47.4926 182.629 47.5112 183.844 47.2662C184.967 47.0396 186.221 46.0635 187.399 46.3135C186.745 47.4495 184.799 48.07 183.616 48.3677C183.014 48.5192 182.628 48.4718 182.709 49.2232C182.787 49.9514 183.42 50.6816 183.563 51.4401C183.752 52.4441 183.587 53.3666 183.23 54.3108C182.878 55.2397 182.796 55.361 183.103 56.2487C183.582 57.6308 182.553 59.1584 181.602 60.1621C177.756 64.2205 170.397 62.6832 166.54 59.4474ZM176.312 35.1922C176.328 35.2337 176.315 35.2179 176.312 35.1922V35.1922ZM177.51 45.4341C177.351 45.5533 176.432 45.803 176.471 45.4441C176.522 44.9632 177.35 45.1369 177.51 45.4341ZM179.603 35.7196C179.388 35.5589 178.784 35.625 179.225 35.0161C179.369 35.2839 179.486 35.5018 179.603 35.7196ZM165.119 31.8707C165.393 31.157 165.698 30.493 165.821 29.7333C165.898 29.2653 165.746 28.7308 166.4 28.6574C165.566 28.2937 165.558 26.8584 165.509 26.1144C165.441 25.0897 165.117 23.7178 165.568 22.7641C166.03 21.7844 166.654 21.8006 166.842 22.9673C166.916 23.4242 166.634 23.5719 166.58 23.8901C166.476 24.5194 166.684 24.3814 167.09 23.902C167.258 24.3893 167.322 25.1216 168.004 25.0906C167.959 24.9589 167.697 24.6681 167.785 24.5044C167.919 24.253 168.574 24.6372 168.657 24.6953C169.256 25.1138 169.385 25.4958 168.959 26.0236C169.549 26.0872 169.053 26.6044 169.435 26.7392C170.017 26.9449 169.626 25.9705 169.563 25.7991C169.917 25.9373 170.036 26.0951 170.26 26.3749C170.392 26.5679 170.512 26.7683 170.62 26.9756C170.741 27.3541 170.989 27.4489 171.365 27.2602C172.118 27.4966 173.158 27.4596 173.834 27.8729C174.142 28.0616 174.254 28.4746 174.512 28.6314C174.801 28.808 175.19 28.7279 175.501 28.8387C175.387 29.0975 175.48 29.2376 175.778 29.2596C176.009 29.2808 176.234 29.333 176.45 29.4159C176.613 29.2936 176.789 29.1971 176.98 29.1268C177.108 29.3525 177.288 29.4083 177.523 29.2946C178.217 29.4247 178.551 29.6876 178.993 30.0805C179.389 30.4332 179.067 30.4618 179.501 30.4306C179.676 30.418 179.981 30.122 180.381 30.1797C180.61 30.2245 180.832 30.2952 181.045 30.392C181.276 30.5893 181.521 30.6141 181.78 30.4666C182.2 30.6722 182.242 31.0366 182.755 31.0864C183.322 31.1417 183.14 30.4344 183.529 31.432C184.054 30.3744 184.246 32.0592 184.788 32.1953C185.349 32.3363 185.41 31.8814 185.89 32.3785C186.034 32.5275 186.026 32.7736 186.188 32.9316C186.452 33.1902 186.811 33.1385 187.041 33.4912C186.913 33.2943 187.071 34.1887 187.068 34.1591C187.104 34.5538 186.754 34.9958 187.472 34.9622C187.464 35.0037 187.119 35.5068 187.052 35.4498C187.035 35.3924 187.021 35.3342 187.01 35.2754C186.933 35.3085 186.899 35.7877 186.913 35.8723C186.974 35.8819 186.999 35.8366 186.988 35.7365C186.87 36.1061 187.048 36.3408 186.821 36.6916C186.676 36.9159 186.278 37.0843 186.067 37.2228C185.558 37.5569 185.059 37.892 184.562 38.2475C183.403 39.0768 182.106 40.0768 180.646 40.2498C181.379 39.5301 185.596 36.8065 183.481 36.0246C183.089 35.8797 182.374 35.7424 181.964 35.7119C181.454 35.6741 180.926 35.9662 180.363 35.7839C179.684 35.5642 179.94 34.9258 179.525 34.6968C178.644 34.2109 178.852 35.3535 178.575 35.6528C178.284 35.3471 178.346 35.1984 177.886 35.1707C177.419 35.1426 177.308 35.5742 176.763 35.3054C176.012 34.9348 176.41 34.1968 175.345 34.1794C175.363 34.0173 175.517 33.5646 175.314 33.4383C175.04 33.7936 175.252 34.1908 174.998 34.5328C174.87 34.7044 174.594 34.8412 174.393 34.8967C173.92 35.0263 173.853 35.2746 173.93 34.5638C173.58 35.1941 172.507 34.9348 171.869 34.8714C170.832 34.7682 169.729 34.5719 168.734 34.2392C167.814 33.9313 167.323 33.4025 166.564 32.9214C166.277 32.7393 166.141 32.8089 165.729 32.6959C165.323 32.5844 164.928 32.3683 165.119 31.8707ZM167.308 20.7101C167.465 20.6157 167.577 22.0239 167.387 22.287C167.04 21.7372 166.424 20.9308 167.308 20.7101ZM167.808 20.1484C168.312 19.6925 167.962 20.87 167.87 21.0676C167.683 20.9479 167.497 20.8283 167.31 20.7087C167.548 20.5626 167.608 20.3302 167.808 20.1484ZM186.812 18.2508C191.466 19.2274 196.077 21.0528 199.81 24.0569C203.21 26.7931 205.609 30.6753 206.954 34.8049C208.351 39.0914 207.882 43.847 204.559 47.1275C202.809 48.8555 200.498 49.8981 198.295 50.9154C197.24 51.4027 196.153 51.8088 195.094 52.2849C194.333 52.6269 193.404 53.174 192.536 53.0792C192.978 52.6131 193.621 52.6035 194.157 52.3185C194.805 51.9739 195.334 51.3126 195.893 50.8403C196.447 50.3713 197.677 48.8945 198.528 49.252C198.41 48.4654 199.306 48.1 199.71 47.5812C200.138 47.0324 200.168 46.3907 200.955 46.211C200.11 45.5494 200.369 44.3017 200.553 43.4011C200.788 42.2494 200.897 41.192 200.99 40.02C201.157 37.907 201.292 35.2153 200.124 33.3577C199.745 32.7546 199.263 32.2003 198.925 31.5738C198.517 30.8188 198.607 30.1542 198.607 29.3265C197.863 29.827 197.706 28.8066 197.391 28.3092C197.155 27.936 196.845 27.7275 196.768 27.258C196.713 26.9163 197.084 26.8586 196.881 26.5005C196.631 26.6887 196.532 26.9804 196.406 27.2511C196.176 27.1591 196.447 26.8389 196.315 26.7347C196.311 26.7319 195.867 26.5391 195.889 26.567C195.604 26.205 195.512 25.6042 195.372 25.1733C194.849 25.4383 194.947 25.4071 194.363 24.9643C194.26 24.8864 193.747 24.5285 193.698 24.4115C193.472 23.8643 193.868 24.1884 193.758 23.8488C193.44 22.8735 191.656 23.0579 191.515 21.5964C190.645 22.1485 190.314 21.3662 189.8 20.8097C189.273 20.2397 188.389 20.0205 188.436 19.1163C188.162 19.21 187.889 19.3034 187.615 19.3966C187.757 18.5623 186.518 18.6154 186.069 18.1922C186.318 18.1953 186.566 18.2148 186.812 18.2508ZM187.521 69.9248C187.952 69.539 187.822 70.0523 188.099 69.9937C188.336 69.9434 188.383 69.7639 188.611 69.7089C189.549 69.4823 190.95 69.767 191.936 69.7182C193.078 69.6617 195.036 69.8988 195.58 71.235C195.908 72.0398 195.408 71.766 194.857 71.7061C194.429 71.6599 194.049 71.7464 193.626 71.7421C193.417 71.7743 193.209 71.7712 193.001 71.7324C192.9 71.6656 192.84 71.5717 192.822 71.4507C192.233 71.3615 191.608 71.7097 190.957 71.7271C190.087 71.7502 189.314 71.5834 188.653 70.9962C188.39 71.3878 188.211 71.582 187.739 71.6258C187.726 71.627 187.265 71.4411 187.193 71.4226C187.099 71.398 186.86 71.5965 186.677 71.5398C187.001 71.0246 187.048 70.3478 187.521 69.9248ZM246.924 74.5749C247.077 74.0408 247.206 73.4999 247.346 72.9622C249.492 75.4063 251.371 78.678 252.217 81.8125C252.766 83.8493 253.62 87.5399 251.002 88.5903C248.87 89.4461 247.68 86.3786 247.141 84.8678C245.95 81.5327 245.95 77.9683 246.924 74.5749ZM150.871 36.2786C150.899 36.2732 149.481 37.0975 149.948 36.43C150.136 36.1616 150.847 35.9729 151.163 35.9729L150.871 36.2786ZM149.508 36.628C149.344 36.766 149.178 36.9023 149.011 37.0367C148.85 36.7831 148.69 36.5296 148.529 36.276C148.846 36.1426 150.189 36.0425 149.508 36.628ZM148.509 62.2573C148.212 62.0564 147.977 62.1632 147.888 62.5004C147.888 62.1648 148.063 61.3853 148.331 61.2946C148.505 61.2357 147.754 60.348 147.965 60.1157C148.501 60.4228 148.18 60.7171 148.337 61.1137C148.408 61.2926 148.621 61.4618 148.668 61.5993C148.747 61.8326 149.067 62.635 148.509 62.2573ZM147.056 60.2598C146.752 60.3375 147.284 60.8389 147.283 61.0605C147.283 61.2281 147.082 61.3568 146.999 61.586C146.819 62.0829 147.128 62.4184 146.618 62.7975C146.618 61.709 145.888 58.8245 147.292 58.294C146.607 57.7548 147.169 57.1323 147.706 57.7776C148.222 58.3982 147.894 60.0454 147.056 60.2598ZM146.324 55.9641C146.048 54.9856 145.218 54.6434 144.268 54.7013C144.305 54.2004 144.684 53.4781 144.959 54.3811C145.071 54.1142 145.149 53.766 145.406 53.5892C145.839 54.9466 147.998 55.6965 146.654 57.1673C146.544 56.7663 146.437 56.3645 146.324 55.9641ZM143.816 54.7743C138.818 55.1367 131.8 56.1738 127.8 52.3426C125.192 49.8444 125.332 45.9541 127.439 43.1785C128.642 41.5948 130.284 40.4795 131.933 39.4171C132.569 39.007 133.108 38.7363 133.807 38.5006C133.92 38.4884 134.026 38.5137 134.126 38.5764C134.165 38.4077 134.26 38.2828 134.411 38.2013C134.681 38.0569 135.065 38.0054 135.221 37.7056C135.055 38.2685 134.97 38.848 134.909 39.4305C134.774 39.2737 134.64 39.1169 134.505 38.9601C134.393 40.0208 133.288 39.3788 132.628 39.5113C133.063 40.1127 133.373 40.3313 133.411 41.1263C133.087 40.5286 132.41 40.1356 131.781 39.9431C132.123 40.954 132.364 41.554 132.02 42.6626C131.604 42.4253 131.576 41.8552 131.072 41.7187C130.939 42.3797 130.916 43.1132 130.745 43.7548C129.454 43.1659 129.58 44.7518 130.098 45.5366C130.374 45.9541 130.51 46.4374 130.755 46.8382C131.359 47.8212 130.9 46.3511 131.571 46.4209C131.42 47.4578 131.368 47.561 132.127 48.3202C132.867 49.0606 133.252 50.088 134.044 50.7836C134.273 50.4905 133.912 50.1838 133.881 49.9033C134.618 50.027 134.963 50.766 135.671 50.1113C135.98 50.7135 136.315 51.3767 137.055 51.5004C136.566 50.5706 137.994 51.2011 138.361 51.3331C138.639 51.4332 139.136 51.5128 139.244 51.5514C139.847 51.7695 139.433 51.3782 139.8 52.0928C140.338 51.9306 140.541 51.4842 141.184 51.8612C141.707 52.1679 141.708 52.6931 141.828 53.2312C141.953 52.8793 142.078 52.5275 142.216 52.1803C142.357 52.2394 142.946 52.8876 142.882 52.8907C144.26 52.823 144.211 53.679 143.816 54.7743ZM136.798 37.2266C137.075 37.0324 137.413 37.291 137.724 37.2214C138.154 37.1253 138.398 36.7567 138.879 36.7171C138.745 37.1446 138.494 37.1046 138.282 37.4404C138.21 37.5548 138.247 37.8293 138.183 37.8951C137.644 38.447 137.458 37.9966 136.908 37.5788C136.956 38.0826 137.053 38.2418 136.578 38.3769C136.148 38.4994 135.439 38.0483 135.223 37.7023C135.405 37.3367 136.467 37.4592 136.798 37.2266ZM140.228 36.4393C140.694 36.4838 140.132 37.8607 139.463 36.525C139.715 36.4702 139.97 36.4416 140.228 36.4393ZM142.628 36.1731C143.364 36.0229 145.819 35.3233 146.092 36.469C146.141 36.4404 146.324 35.7937 146.409 35.8726C146.748 36.1888 146.786 36.608 146.761 37.0472C146.349 36.1912 146.496 36.943 146.217 36.8844C146.145 36.8689 146.033 37.0048 145.849 36.9487C145.608 36.8751 145.435 36.3616 145.282 36.1876C145.029 36.5498 144.714 37.0162 144.206 36.9847C143.846 36.9626 143.267 36.0365 143.733 37.0503C143.459 36.9599 143.143 36.7555 142.838 36.7965C142.497 36.8425 142.32 37.1792 142 37.2335C141.291 37.3536 141.184 36.6716 140.724 36.3013C141.359 36.2643 142.001 36.3008 142.628 36.1731ZM147.081 36.1621C147.133 35.9271 147.777 35.8323 147.941 35.9069C148.341 36.0887 148.193 36.3287 148.119 36.7281C147.822 36.5875 147.525 36.4471 147.228 36.3065C147.672 37.0205 146.868 37.1241 147.081 36.1621ZM271.758 77.9829C271.706 76.2718 271.656 74.5313 271.222 72.8655C270.919 71.6997 270.173 69.6093 268.762 69.407C266.635 69.1017 265.457 73.3059 264.861 74.7491C264.742 73.0499 264.846 71.2414 264.204 69.6288C263.691 68.3365 262.392 67.1126 261.274 68.5638C260.28 69.8555 260.088 71.7621 259.827 73.3161C259.487 75.3298 259.283 77.359 259.036 79.3848C258.064 77.5072 257.894 75.3579 257.126 73.4064C256.402 71.5651 255.261 69.8064 254.163 68.1685C253.266 66.8306 252.175 65.5729 250.769 64.755C249.546 64.0432 247.407 63.2732 246.242 64.4554C245.269 65.4418 245.421 66.7618 245.472 68.0064C245.494 68.5607 245.581 68.9408 245.094 69.2201C244.854 69.3574 244.48 69.2864 244.217 69.3598C243.793 69.4782 243.467 69.6789 243.109 69.9455C240.593 71.8153 239.433 75.1847 239.075 78.1888C238.62 81.995 240.104 85.2579 241.381 88.7405C241.584 89.2955 242.23 90.473 242.141 91.0926C242.043 91.7715 241.191 91.7891 240.616 91.8032C238.88 91.8461 237.065 91.7167 235.337 91.5549C231.223 91.17 227.112 89.1894 223.429 87.4212C222.757 87.0986 221.806 86.9139 221.257 86.4058C220.742 85.9282 220.606 85.1628 220.161 84.6149C219.068 83.2706 218.372 82.1234 216.763 81.3113C215.125 80.4844 213.454 79.7201 211.855 78.8143C209.879 77.6938 208.053 76.2745 206.159 75.0198C202.639 72.6887 199.142 70.1331 195.411 68.1509C193.677 67.2296 191.739 67.0804 189.938 66.3261C188.185 65.5917 186.033 65.5907 184.203 66.0545C183.312 66.2806 182.706 66.8163 181.886 67.1659C180.925 67.5758 180.142 67.1235 179.296 66.6343C178.005 65.8869 176.725 64.6692 178.564 63.863C179.188 63.5894 179.969 63.4858 180.514 63.0556C181.095 62.5974 181.562 61.7519 182.034 61.1778C183.084 59.9017 183.711 58.4325 185.249 57.6389C186.948 56.7613 188.963 56.5225 190.775 55.9489C192.739 55.3276 194.662 54.5889 196.589 53.8635C200.061 52.5566 203.67 51.1456 206.165 48.2688C208.317 45.7868 209.255 42.5833 209.168 39.3294C208.991 32.6776 205.427 25.9269 200.315 21.7679C194.046 16.6682 186.071 14.9677 178.152 15.0568C174.436 15.0987 170.001 15.5851 166.9 17.8431C164.221 19.7933 163.776 23.2045 164.174 26.2836C164.336 27.5333 164.889 29.1824 164.007 30.2836C163.514 30.8996 162.629 31.0521 161.964 31.4363C161.129 31.9188 160.393 32.3814 159.447 32.6366C155.431 33.7214 151.2 33.3437 147.093 33.2836C140.251 33.1835 133.238 35.0359 128.134 39.8568C124.013 43.7495 122.777 51.0901 127.803 54.8851C131.865 57.9509 138.235 57.6137 143.024 57.0789C144.509 56.9128 145.53 56.6717 145.533 58.4885C145.537 60.4731 145.208 62.5473 145.715 64.4957C146.512 67.5641 149.461 67.6373 152.067 66.9765C153.443 66.6278 154.773 66.1036 156.079 65.5545C157.995 64.7493 159.751 63.5651 161.643 62.7613C162.925 62.2166 163.886 63.9784 165.024 62.757C165.234 62.5314 165.273 62.1949 165.59 62.0793C166.087 61.8984 166.92 62.5328 167.356 62.7334C168.009 63.0339 168.666 63.2549 168.927 63.9784C169.171 64.6551 169.064 65.7313 168.83 66.3991C168.323 67.8503 166.956 67.5634 165.708 67.4664C163.531 67.297 161.369 66.9379 159.193 66.787C157.241 66.6517 155.412 67.235 153.728 68.1978C150.192 70.2198 147.298 73.436 144.231 76.081C142.653 77.4422 141.127 78.9125 139.411 80.0978C138.665 80.6133 137.856 81.0871 137.208 81.7276C136.564 82.3629 136.494 82.9406 136.273 83.7861C135.881 85.2915 133.935 86.0274 132.718 86.8216C130.997 87.9448 129.172 88.7371 127.243 89.4263C123.158 90.8857 119.04 91.9047 114.769 92.658C112.677 93.0269 110.603 93.2692 108.492 93.4685C106.672 93.64 104.736 94.2005 102.918 93.7528C103.442 92.9034 104.369 92.3935 105.092 91.7369C106.024 90.8907 106.816 89.8879 107.521 88.8489C108.894 86.8257 109.856 84.6547 110.077 82.2007C110.276 79.992 110.048 77.3499 108.715 75.4842C108.255 74.8396 107.344 74.6642 106.932 74.0837C106.523 73.5065 106.679 72.513 106.455 71.8401C105.884 70.1286 104.189 68.0076 102.698 67.0137C101.08 65.9348 98.7134 65.5385 96.8445 66.1007C93.3823 67.1421 91.2556 70.842 89.6713 73.8325C88.8059 72.0114 90.2552 69.3097 88.5645 67.8184C87.1385 66.5604 86.0067 68.9973 85.5298 70.0399C83.2909 74.934 82.7825 80.1248 81.8445 85.3613C81.4622 84.9845 81.6581 84.0175 81.6941 83.5681C81.7609 82.7314 81.7548 81.9106 81.7564 81.0704C81.7609 78.9478 82.1556 76.8154 81.9747 74.6947C81.8702 73.4689 81.4794 70.884 79.6983 71.2912C78.1878 71.6368 77.2417 73.7608 76.7671 75.0593C76.0825 76.9324 75.9245 78.7867 75.9671 80.7653C76.0142 82.9516 75.5977 85.102 75.4967 87.2851C75.3006 91.5258 75.4944 95.7298 76.7111 99.8224C78.7036 106.524 83.2848 112.093 89.399 115.455C92.7677 117.308 96.5048 118.48 100.347 118.732C102.429 118.869 104.439 118.621 106.504 118.406C108.541 118.193 110.589 118.095 112.623 117.846C117.152 117.29 121.565 115.857 125.681 113.927C127.848 112.912 129.886 111.665 132.017 110.582C132.873 110.148 133.45 109.604 134.18 109C134.904 108.401 135.104 108.354 135.927 108.354C135.686 107.709 136.39 107.51 136.704 107.101C136.686 107.299 136.669 107.497 136.651 107.695C136.89 107.177 137.112 107.182 137.318 107.71C137.522 107.119 137.672 106.51 137.918 105.934C138.858 106.409 138.779 107.539 140.035 106.714C141.069 106.035 142.021 105.234 143.076 104.568C145.478 103.051 147.55 101.078 149.959 99.5791C149.959 101.039 150.062 102.512 149.867 103.965C149.681 105.346 149.165 106.637 148.755 107.959C147.999 110.399 147.947 113.006 147.109 115.422C146.762 116.422 145.858 117.258 145.599 118.232C145.336 119.225 145.945 120.021 144.923 120.673C144.202 121.133 143.301 121.327 142.503 121.605C141.286 122.03 140.13 122.629 138.945 123.137C133.386 125.518 127.964 127.944 122.814 131.147C117.927 134.186 112.964 137.325 108.475 140.934C104.578 144.067 100.639 148.117 99.6905 153.227C98.7701 158.183 101.222 163.503 106.147 165.136C108.707 165.985 111.601 165.88 114.268 165.916C117.137 165.956 120.177 165.265 122.998 164.764C125.977 164.236 128.905 163.409 131.892 162.937C134.759 162.484 137.388 161.472 140.208 160.849C143.211 160.185 146.291 159.824 149.31 159.227C150.67 158.958 152.002 158.561 153.365 158.312C154.858 158.039 156.366 157.937 157.844 157.576C160.711 156.875 163.455 155.746 166.334 155.094C167.629 154.801 168.903 154.409 170.198 154.135C171.39 153.883 172.319 153.213 173.514 153.763C174.479 154.208 175.249 154.97 176.163 155.501C177.348 156.19 178.597 156.807 179.832 157.4C182.314 158.591 184.888 159.414 187.483 160.308C190.209 161.247 192.886 162.318 195.71 162.939C198.606 163.574 201.559 163.752 204.475 164.255C210.445 165.285 216.365 165.747 222.425 165.784C225.489 165.804 228.551 165.44 231.608 165.483C234.313 165.521 236.665 166.131 239.139 164.693C243.092 162.395 247.678 158.933 247.58 153.905C247.492 149.35 244.76 144.999 242.198 141.407C239.086 137.045 234.649 133.973 230.301 130.964C225.666 127.757 220.461 125.542 215.59 122.742C213.099 121.311 210.802 119.771 208.097 118.753C206.806 118.268 205.546 117.705 204.27 117.182C203.243 116.762 201.76 116.529 200.882 115.831C200.333 115.396 200.281 114.737 200.136 114.089C199.815 112.656 199.311 111.298 198.823 109.916C197.88 107.248 197.253 104.53 196.848 101.732C196.461 99.0646 195.604 96.2905 196.048 93.5795C198.969 96.4054 201.971 99.1218 204.96 101.873C206.081 102.904 207.18 103.956 208.306 104.981C209.151 105.75 210.209 106.893 211.387 107.121C212.892 107.413 212.342 105.748 213.375 105.49C214.007 105.333 215.911 106.937 216.411 107.254C219.576 109.263 223.08 110.537 226.561 111.904C230.211 113.338 233.965 114.612 237.892 114.973C241.52 115.307 245.23 114.878 248.731 113.89C255.703 111.922 260.833 107.251 264.599 101.197C268.889 94.299 272.011 86.2178 271.758 77.9829Z" fill="black"/>
<path fill-rule="evenodd" clip-rule="evenodd" d="M165.2 62.9441C165.199 62.9462 165.188 62.9694 165.188 62.9694C165.201 62.9601 165.205 62.9518 165.2 62.9441Z" fill="black"/>
<path fill-rule="evenodd" clip-rule="evenodd" d="M165.536 63.0332C165.51 62.8135 165.454 62.5983 165.367 62.3877C165.136 62.7536 164.93 62.9103 165.233 63.2979C165.334 63.2097 165.435 63.1214 165.536 63.0332Z" fill="black"/>
<path fill-rule="evenodd" clip-rule="evenodd" d="M181.613 115.331C181.872 115.056 181.42 114.953 181.249 114.949C181.266 115.244 181.12 115.95 181.523 116.087C181.426 115.82 181.456 115.568 181.613 115.331Z" fill="black"/>
<path fill-rule="evenodd" clip-rule="evenodd" d="M174.803 57.8467C174.359 58.7036 175.339 58.9694 175.907 58.5554C176.334 58.2442 176.586 57.4509 176.656 56.9419C176.883 55.2947 175.731 53.727 175.156 52.2656C175.008 51.8878 174.804 50.5924 174.326 50.5567C173.777 50.5158 173.736 51.709 173.729 52.0169C173.708 52.9453 173.953 53.8909 174.242 54.7672C174.552 55.712 175.321 56.846 174.803 57.8467Z" fill="black"/>
<path fill-rule="evenodd" clip-rule="evenodd" d="M176.913 54.4102C178.619 55.9288 179.983 53.3995 179.864 51.9033C179.834 51.5326 179.584 50.1659 178.881 50.6633C178.528 50.9132 178.829 51.7252 178.66 52.0817C177.845 53.8102 177.059 51.1292 176.51 50.9186C175.842 50.6622 175.774 51.5403 175.775 52.0097C175.777 52.9414 176.22 53.7931 176.913 54.4102Z" fill="black"/>
<path fill-rule="evenodd" clip-rule="evenodd" d="M170.722 54.6461C171.124 54.0135 171.618 53.1651 171.673 52.4072C171.757 51.2292 171.071 51.3275 170.506 52.1494C170.107 52.73 169.808 53.7148 168.927 53.47C167.839 53.1682 168.171 51.7057 167.562 51.0107C166.025 53.0759 168.934 57.4609 170.722 54.6461Z" fill="black"/>
<path fill-rule="evenodd" clip-rule="evenodd" d="M173.027 60.9661C173.663 61.1036 175.321 61.0529 174.746 60.0792C174.022 58.8525 171.612 60.6602 173.027 60.9661Z" fill="black"/>
<path fill-rule="evenodd" clip-rule="evenodd" d="M195.305 24.3887C195.422 24.042 195.262 23.9791 194.984 23.706C194.721 23.9486 195.058 24.2039 195.305 24.3887Z" fill="black"/>
<path fill-rule="evenodd" clip-rule="evenodd" d="M207.167 87.1779C207.587 87.2446 207.722 87.0227 207.572 86.512C206.91 86.4692 206.775 86.6911 207.167 87.1779Z" fill="black"/>
<path fill-rule="evenodd" clip-rule="evenodd" d="M184.257 33.6154C184.72 33.827 184.543 34.261 184.535 34.6279C184.773 34.3689 185.255 33.8953 185.059 33.5232C184.757 32.9495 183.967 33.483 184.257 33.6154Z" fill="black"/>
<path fill-rule="evenodd" clip-rule="evenodd" d="M168.494 26.3944C168.424 26.2567 168.353 26.1191 168.283 25.9814C167.995 26.2121 167.551 26.8219 168.008 27.1191C168.195 26.8919 168.357 26.6503 168.494 26.3944Z" fill="black"/>
<path fill-rule="evenodd" clip-rule="evenodd" d="M174.047 30.4421C174.622 30.8936 174.346 29.5077 174.329 29.3945C174.243 29.5571 173.756 30.214 174.047 30.4421Z" fill="black"/>
<path fill-rule="evenodd" clip-rule="evenodd" d="M173.728 29.7383C173.684 29.6238 173.639 29.5093 173.595 29.3945C173.362 29.6106 173.076 30.0519 173.462 30.3047C173.567 30.1276 173.656 29.9389 173.728 29.7383Z" fill="black"/>
<path fill-rule="evenodd" clip-rule="evenodd" d="M177.384 34.4975C177.431 34.5409 177.478 34.5843 177.525 34.6279C177.715 34.2448 177.499 33.957 177.141 33.9453C177.166 34.1604 177.247 34.3445 177.384 34.4975Z" fill="black"/>
<path fill-rule="evenodd" clip-rule="evenodd" d="M161.956 77.595C162.184 77.4395 162.392 77.2622 162.578 77.0631C161.902 76.6498 162.307 77.5455 161.493 76.9955C161.318 77.2379 161.605 77.7802 161.956 77.595Z" fill="black"/>
<path fill-rule="evenodd" clip-rule="evenodd" d="M190.361 115.177C190.618 114.782 190.665 114.794 190.314 114.494C190.021 114.982 190.051 114.856 190.361 115.177Z" fill="black"/>
<path fill-rule="evenodd" clip-rule="evenodd" d="M136.639 52.3934C136.779 52.5394 136.919 52.6853 137.058 52.8311C137.124 52.6401 137.48 52.1005 137.238 51.9209C137.038 52.0784 136.838 52.2359 136.639 52.3934Z" fill="black"/>
<path fill-rule="evenodd" clip-rule="evenodd" d="M141.616 53.8372C141.392 53.8 140.858 53.637 140.734 53.8447C141.061 54.1125 141.799 53.868 141.616 53.8372Z" fill="black"/>
</svg>
