<svg width="358" height="189" viewBox="0 0 358 189" fill="none" xmlns="http://www.w3.org/2000/svg">
<rect width="358" height="189" rx="20.4135" fill="#F5F5F7"/>
<g clip-path="url(#clip0_28_317)">
<path fill-rule="evenodd" clip-rule="evenodd" d="M90.4201 113.096L90.5947 121.775L103.518 125.667L113.254 130.756L120.777 138.14L124.757 135.256L130.226 124.833L135.807 124.126L155.692 127.393L162.468 129.878L159.352 141.481L156.422 149.975L196.583 149.944L196.399 129.822L189.212 111.015L157.388 93.1658L132.709 94.8142L114.326 112.789L106.49 116.482L93.0768 114.989" fill="#FCB0B3"/>
<path fill-rule="evenodd" clip-rule="evenodd" d="M260.16 43.5437C262.661 46.9765 258.413 51.3665 256.024 53.5151C254.865 54.5583 253.883 55.7853 252.746 56.8575C251.624 57.9171 250.246 58.7216 249.233 59.7486C248.17 60.8273 246.947 62.0043 246.038 63.2349C245.463 64.0147 244.627 64.874 244.31 65.7997C243.853 67.131 244.214 66.3679 244.665 67.1629C245.126 67.9747 245.295 68.03 245.402 69.1298C245.506 70.199 245.697 70.9882 246.217 71.9272C247.072 73.474 248.008 74.936 248.575 76.6236C249.33 78.8681 249.823 81.1306 250.394 83.4275C250.617 84.3233 250.741 85.3414 251.136 86.1781C251.698 87.3665 251.793 87.2753 252.773 86.6134C255.701 84.638 258.668 82.5422 261.708 80.6744C263.45 79.6044 265.255 78.5628 267.081 77.6433C268.334 77.0122 271.01 75.9157 271.695 74.6464C272.602 72.9632 271.445 71.2999 273.263 69.8086C274.446 68.8373 276.308 68.3708 277.785 68.2058C279.871 67.9729 282.122 68.6177 284.174 68.9251C286.249 69.2355 288.3 69.1547 290.371 68.8506C293.541 68.3854 299.771 65.1361 301.542 69.5917C302.317 71.5412 301.591 73.6069 301.308 75.541C301.062 77.2267 300.456 78.9957 299.316 80.3263C298.013 81.8466 296.249 81.825 294.394 82.1388C292.203 82.509 289.975 82.5586 287.783 82.9166C286.703 83.0927 285.644 83.1468 284.547 83.1318C283.571 83.1188 282.189 82.6409 281.327 82.7143C280.51 82.7838 280.756 83.3111 280.166 83.6312C279.927 83.7611 279.462 83.63 279.311 83.7372C278.897 84.0311 278.766 84.3009 278.443 84.8589C277.417 86.6315 275.925 88.33 274.646 89.9337C273.57 91.2847 272.317 92.9428 271.075 94.1314C268.44 96.6518 265.861 99.4483 263.252 102.091C261.924 103.435 260.344 104.855 258.827 105.988C258.359 106.338 257.437 106.623 257.178 107.136C256.808 107.868 257.594 109.574 257.755 110.342C258.139 112.166 258.094 114.024 258.509 115.823C258.907 117.544 258.978 119.399 258.983 121.168C258.995 125.166 259.315 128.978 258.949 132.956C258.633 136.387 258.31 139.676 256.913 142.98C255.642 145.988 252.181 149.138 249.081 150.089C247.236 150.655 245.523 151.167 243.684 151.424C241.869 151.678 239.957 151.935 238.145 152.337C234.784 153.082 231.261 153.533 227.81 153.651C223.392 153.802 218.807 153.568 214.435 153.154C212.441 152.966 210.387 152.839 208.415 152.728C206.371 152.612 204.422 152.899 202.367 152.991C195.113 153.316 187.531 152.255 180.283 152.563C176.7 152.715 173.103 153.205 169.478 153.031C166.232 152.875 162.956 152.465 159.785 152.262C158.78 152.197 157.898 152.225 156.907 151.935C156.384 151.782 155.667 151.264 155.116 151.505C154.634 151.715 154.222 152.698 153.906 153.108C153.217 154.006 152.401 154.71 151.54 155.437C148.122 158.322 144.855 159.167 140.542 160.042C138.562 160.443 137.584 160.657 135.877 161.744C134.487 162.63 133.097 163.243 131.529 163.72C128.453 164.657 124.956 163.582 122.186 162.445C120.844 161.894 119.431 161.382 118.065 160.742C116.204 159.87 114.707 158.518 112.875 157.631C112.971 159.645 110.757 160.187 110.018 161.492C109.54 162.335 109.717 163.715 109.204 164.67C108.728 165.555 108.025 166.377 106.995 166.555C105.592 166.797 103.209 165.112 102.29 164.157C101.78 163.627 101.377 162.272 100.73 162.012C99.8847 161.672 98.2284 162.851 97.3954 163.09C93.4084 164.233 89.4128 164.646 85.2528 163.848C81.0378 163.039 77.2334 161.3 73.3348 159.635C65.6995 156.373 59.183 151.363 53.4043 145.455C53.0829 145.126 52.606 144.822 52.3958 144.404C52.2121 144.039 52.2798 143.206 52.1578 143.001C51.7947 142.391 51.1922 142.459 50.449 142.358C48.1527 142.047 46.3536 141.381 44.6578 139.732C41.9888 137.135 41.2857 131.409 45.6891 130.163C46.8147 129.844 48.0329 129.84 49.1586 130.145C49.6229 130.27 51.3087 131.433 51.7596 131.389C52.4433 131.322 52.3636 130.443 52.5712 129.989C53.0979 128.838 53.8019 127.839 54.6357 126.885C56.0216 125.299 57.6892 123.722 59.3789 122.465C61.2145 121.099 63.1781 120.562 65.3074 119.872C66.742 119.407 69.5345 118.629 70.9902 119.208C72.8857 119.963 71.8133 122.016 70.5509 122.681C68.7477 123.632 66.6335 123.939 64.8065 124.901C62.7902 125.962 60.9165 127.468 59.0511 128.777C57.55 129.83 56.2243 131.161 54.7032 132.166C54.2999 132.433 53.6393 132.901 53.5098 133.054C53.4648 133.107 53.4893 133.56 53.2864 133.749C52.3865 134.586 52.5907 134.498 51.334 134.11C49.8524 133.653 46.3128 132.609 45.1881 134.409C44.1758 136.03 47.82 137.761 49.0156 138.345C50.7708 139.202 51.1463 139.98 52.3471 141.486C53.5771 143.028 55.7061 144.154 57.2913 145.344C60.7177 147.916 64.6275 149.829 68.3357 151.931C71.9443 153.976 75.8622 155.527 79.6596 157.034C81.9523 157.944 84.7056 158.937 87.1459 159.321C89.6046 159.708 91.948 159.444 94.4027 159.117C95.3842 158.987 96.1252 158.886 97.1613 158.589C97.6226 158.457 98.3613 158.478 98.7367 158.221C99.3188 157.822 99.1081 157.464 99.2506 156.733C99.8743 153.526 101.905 157.268 102.835 158.404C103.552 159.28 104.246 160.346 105.225 160.933C106.451 161.667 106.689 161.369 107.168 160.307C108.066 158.318 108.496 156.022 111.411 156.496C109.213 154.38 107.107 152.568 105.266 150.073C103.45 147.611 101.772 144.982 100.041 142.46C98.6212 140.393 97.4451 137.587 95.5427 135.909C94.9413 135.379 93.0916 134.13 92.3601 134.11C91.2657 134.08 90.1895 135.804 89.0039 135.882C87.6944 135.969 87.123 135.48 86.8147 134.404C86.4949 133.288 87.4902 132.085 87.2267 131.272C87.1534 131.046 86.616 130.748 86.4642 130.417C86.2358 129.919 86.2551 129.284 86.3638 128.754C86.5261 127.964 86.8278 127.656 86.8153 126.85C86.8009 125.914 86.4325 125.209 86.8129 124.253C87.2121 123.25 88.2861 122.751 88.9806 122.034C90.0319 120.948 89.5812 120.056 89.2746 118.562C88.6178 115.366 87.8185 112.198 87.1492 109.003C85.1416 109.508 83.1727 110.098 81.1572 110.56C79.2185 111.005 76.8307 111.365 75.0103 112.14C73.9165 112.606 74.2405 112.137 74.249 113.317C74.2539 114.08 74.5251 114.95 74.63 115.708C74.8234 117.11 74.7305 120.692 75.7778 121.419C76.4118 121.859 77.5054 121.34 78.1806 122.192C78.7494 122.909 78.5076 123.889 78.8292 124.667C79.029 125.151 79.4592 125.357 79.7077 125.805C80.2267 126.743 80.1203 127.5 80.1609 128.519C80.1863 129.16 79.9741 131.065 80.2623 131.579C80.6468 132.265 81.4936 132.201 82.1896 132.449C83.9434 133.074 85.5334 134.075 86.9861 135.218C87.7154 136.225 93.0093 142.183 90.5218 142.753C89.3206 143.028 87.3903 140.248 86.5837 139.475C85.3334 138.278 83.9979 137.461 82.4288 136.749C78.5993 135.009 75.134 133.445 70.8285 133.815C68.9826 133.974 66.7115 134.65 64.884 134.362C63.0448 134.073 63.6222 132.454 64.8338 131.604C65.9172 130.844 67.3431 131.161 67.8793 129.81C68.4204 128.445 68.0335 126.656 68.8519 125.305C69.5507 124.151 71.1042 123.002 72.2876 122.38C72.8036 122.109 73.6699 121.95 73.9566 121.522C74.1917 121.171 73.4368 119.034 73.3406 118.593C72.8703 116.435 72.3463 114.27 71.9687 112.094C71.6187 110.077 71.5581 109.039 73.7 108.442C76.9688 107.531 80.3578 107.216 83.6227 106.394C83.1428 104.882 81.2932 106.02 80.021 105.892C78.4626 105.736 76.6858 105.115 75.2267 104.547C71.9145 103.258 69.7783 100.408 69.4652 96.8784C69.3962 96.1041 69.8496 94.5867 69.6102 93.8914C69.3844 93.2347 68.6564 92.8784 68.1381 92.3891C66.802 91.1286 65.6527 89.4388 64.9938 87.7216C64.3334 86.0005 64.3926 84.1149 64.94 82.3729C65.2415 81.4129 65.387 81.2871 65.098 80.3452C64.7631 79.2557 64.17 78.268 63.8679 77.1507C63.3732 75.3209 63.1604 73.3673 63.3062 71.4748C63.4702 69.3517 64.3809 68.4492 65.0583 66.6092C65.5929 65.1568 65.1058 63.0761 65.3057 61.4409C65.5617 59.3486 66.2007 57.6936 67.2418 55.8797C68.8415 53.0929 71.287 50.1492 74.3207 48.8189C74.9207 48.5557 75.8785 48.5952 76.4193 48.2801C77.0913 47.8884 77.1798 47.2573 77.4777 46.5187C78.1885 44.7574 79.0288 43.3464 80.4157 42.0502C84.9139 37.8466 92.4245 36.7108 98.3499 37.4418C99.414 37.5734 100.402 38.1387 101.432 37.9026C102.146 37.7388 102.932 37.0536 103.674 36.7946C104.611 36.4669 105.542 36.298 106.532 36.259C108.488 36.1814 110.058 36.4804 111.811 37.2428C112.473 37.5308 113.105 37.8399 113.756 38.1483C114.784 38.6359 114.736 38.4301 115.738 38.2922C117.735 38.0176 118.851 38.3756 120.55 39.3207C121.002 39.5724 121.73 39.7828 122.112 40.1205C122.652 40.599 122.803 41.9641 123.419 42.2539C123.761 42.415 124.875 41.9639 125.331 41.9175C126.136 41.8352 126.909 41.9961 127.702 42.0348C129.107 42.1034 130.588 42.2439 131.83 42.9831C132.766 43.5395 133.87 44.5712 134.663 45.2618C135.761 46.217 136.379 47.9363 137.788 48.4864C138.34 48.7018 138.959 48.5542 139.524 48.7434C140.261 48.9899 140.948 49.5743 141.525 50.0886C142.519 50.973 143.287 52.937 144.33 53.3345C145.026 53.6 146.142 53.4329 146.939 53.7124C147.94 54.0632 148.759 54.5338 149.468 55.348C150.821 56.9012 151.098 59.0945 151.041 61.0877C151.025 61.625 150.604 63.1174 150.897 63.6126C151.158 64.0519 152.22 64.3597 152.633 64.8192C153.922 66.2557 154.407 68.5501 154.435 70.4143C154.467 72.5414 153.83 74.0012 153.332 76.0051C153.022 77.2542 152.767 76.427 153.79 77.2347C154.492 77.7892 154.977 78.1766 155.405 79.0069C156.299 80.7426 156.431 82.734 156.153 84.6348C155.806 87.0065 154.489 88.7109 153.81 90.9339C156.319 91.0836 158.982 91.9069 161.406 92.5151C162.3 92.7395 162.971 93.2777 163.75 93.7237C164.423 94.1085 164.937 94.1793 165.577 94.446C167.126 95.0911 166.826 94.9809 167.994 93.9195C172.646 89.6915 179.047 87.3534 185.335 87.817C188.842 88.0753 192.21 88.7404 195.416 90.1976C196.745 90.8013 198.223 91.455 199.381 92.3468C200.722 93.3801 200.93 93.3815 202.776 93.5303C209.459 94.068 215.737 98.0431 220.348 102.682C220.957 99.7915 225.806 98.3255 228.176 97.2536C228.986 96.8874 229.72 96.7152 230.153 95.9642C230.558 95.2614 230.625 93.7701 230.918 92.9313C231.455 91.3909 232.082 89.5042 232.14 87.8495C232.311 83.0586 231.486 78.2305 231.629 73.4268C231.664 72.2205 231.608 70.8607 231.839 69.6778C232.026 68.7248 232.501 68.152 231.922 67.225C230.824 65.4653 228.639 64.9118 228.029 62.6451C227.044 58.9924 229.32 55.453 232.257 53.4905C233.947 52.3608 235.543 52.1954 236.942 50.5536C238.202 49.0742 239.298 47.3013 240.713 45.9726C241.899 44.8588 243.01 43.3377 244.348 42.4316C245.719 41.5027 247.685 40.9366 249.279 40.5516C253.107 39.6268 257.707 40.1763 260.16 43.5437ZM137.294 126.499C136.418 126.484 135.532 126.53 134.656 126.476C134.123 126.444 132.902 126.083 132.409 126.256C131.426 126.605 130.517 128.777 130.015 129.635C128.391 132.418 127.068 135.359 125.479 138.156C124.652 139.61 123.492 140.53 121.751 140.45C119.8 140.361 118.958 139.059 117.797 137.706C115.483 135.007 112.293 132.615 109.337 130.658C106.145 128.544 102.312 126.451 98.587 125.549C96.1063 124.949 90.4775 122.663 88.7646 125.712C89.5505 125.654 92.5532 125.377 92.6008 126.702C92.6367 127.695 88.9661 127.645 88.4215 129.167C89.3831 129.15 92.7418 128.427 92.8894 129.861C92.9677 130.623 91.5646 130.921 91.0637 131.146C90.0713 131.594 89.4606 132.084 88.6576 132.799C89.8264 132.868 91.0378 131.946 92.1415 132.116C92.5967 132.186 93.1064 132.902 93.5103 133.135C94.0835 133.466 94.7124 133.651 95.359 133.77C96.7669 134.03 97.6493 133.682 98.7252 134.672C99.6912 135.56 100.682 136.717 101.562 137.694C103.441 139.781 104.936 142.377 106.516 144.69C108.468 147.547 110.535 149.845 113.226 152.058C115.416 153.858 117.673 155.075 120.194 156.455C122.667 157.809 125.785 159.393 128.669 159.632C130.968 159.822 133.891 159.256 136.046 158.4C137.299 157.902 137.742 157.929 138.976 157.776C140.89 157.538 143.142 156.654 144.942 155.963C150.595 153.791 154.408 148.551 157.208 143.366C158.801 140.415 159.861 137.502 160.645 134.253C161.072 132.483 161.377 132.08 159.675 131.236C157.957 130.383 156.078 129.808 154.274 129.17C148.983 127.302 142.867 126.594 137.294 126.499ZM152.377 94.9105C151.813 95.1247 151.364 97.7437 151.082 98.3162C149.826 100.872 147.777 102.391 144.899 102.493C144.006 102.524 142.605 101.631 141.946 101.974C141.063 102.435 140.763 104.869 139.798 105.615C138.91 106.303 137.104 106.978 136.004 107.198C135.155 107.367 134.329 107.257 133.507 107.014C133.039 106.876 132.167 106.236 131.689 106.429C130.874 106.759 130.381 108.743 129.436 109.37C128.054 110.286 125.91 110.898 124.292 110.782C122.623 110.663 120.689 109.227 119.184 109.453C117.397 109.722 117.531 111.375 116.684 112.61C114.886 115.232 112.887 117.465 109.868 118.588C106.602 119.803 102.031 119.71 98.7363 118.796C96.9455 118.299 95.1577 117.641 93.6885 116.512C92.5181 115.612 91.6682 114.455 90.5943 113.453L90.4185 113.293L90.4258 113.326C90.4457 113.415 90.4661 113.501 90.4871 113.586C90.9229 115.33 90.9805 118.383 91.966 119.844C92.8479 121.151 96.1647 121.419 97.7537 121.682C102.011 122.389 105.636 123.61 109.288 125.981C112.783 128.251 115.939 130.934 118.912 133.8C119.522 134.388 119.984 135.301 120.741 135.701C121.978 136.355 121.915 135.674 122.319 134.564C123.147 132.288 124.015 130.042 125.196 127.92C125.702 127.01 126.795 125.911 127.074 124.93C127.341 123.988 126.971 122.921 127.179 121.906C127.704 119.34 129.006 117.203 130.598 115.198C131.702 113.806 134.896 111.515 134.289 115.147C133.84 117.83 131.723 120.104 131.08 122.728C132.593 122.538 133.528 122.676 134.87 122.841C136.702 123.067 138.836 122.473 140.733 122.58C144.367 122.786 147.933 123.236 151.467 124.095C153.103 124.494 154.658 124.926 156.22 125.587C157.447 126.106 159.029 127.619 160.358 127.807C161.321 127.943 160.976 128.049 161.288 127.24C161.579 126.49 161.398 125.098 161.397 124.292C161.394 122.469 161.064 120.676 160.945 118.858C160.895 118.078 160.162 114.795 161.175 114.228C162.727 113.36 163.128 117.153 163.278 117.837C164.047 121.344 164.471 124.779 164.227 128.383C164.015 131.5 163.629 134.485 162.86 137.55C162.405 139.36 161.667 141.081 160.854 142.756C160.425 143.638 158.025 146.936 158.294 147.558C158.51 148.056 162.292 147.437 162.869 147.422C164.922 147.369 166.962 147.613 169.014 147.614C172.047 147.614 175.09 147.833 178.016 147.474C179.761 147.259 181.574 147.672 183.297 147.786C185.198 147.912 187.047 147.846 188.95 148.141C190.395 148.365 192.531 149.261 193.952 149.027C195.407 148.786 195.04 147.802 195.137 146.343C195.371 142.819 195.299 138.744 194.714 135.269C194.406 133.437 193.951 131.654 193.762 129.799C193.573 127.943 193.707 125.957 193.258 124.144C192.462 120.928 189.917 118.025 187.813 115.558C185.648 113.018 183.185 111.122 180.456 109.23C178.136 107.623 175.675 106.097 173.135 104.797C170.088 103.236 166.584 102.176 163.792 100.194C161.468 98.5442 158.065 96.8513 155.322 95.988C154.888 95.8515 152.697 94.7892 152.377 94.9105ZM240.091 70.8545C238.066 71.0165 234.371 69.8133 234.208 72.5776C234.118 74.0939 234.527 75.7139 234.58 77.2394C234.641 79.0396 234.417 80.8341 234.584 82.6336C234.854 85.5464 235.344 88.2508 234.95 91.2036C234.52 94.4131 233.663 97.4706 233.53 100.744C233.404 103.86 233.057 106.85 234.368 109.794C234.921 111.037 235.343 112.483 235.964 113.652C236.691 115.022 237.366 115.451 238.774 116.07C239.656 116.457 241.852 117.023 242.382 117.957C243.149 119.305 241.991 119.762 240.884 119.652C237.465 119.311 234.038 117.575 230.891 116.268C229.411 115.653 227.995 114.905 226.544 114.244C225.384 113.715 224.426 113.499 223.393 112.654C220.876 110.594 219.002 107.842 216.524 105.736C211.835 101.75 206.082 99.1941 199.956 98.1722C198.38 97.9091 197.148 97.9116 195.551 97.9512C194.668 97.9731 193.796 97.945 192.916 98.0543C192.408 98.1176 190.464 98.9015 190.083 98.6917C187.605 97.3291 195.046 94.0754 195.87 93.9224C194.887 93.1395 192.749 93.1367 191.527 92.9028C189.968 92.6037 188.452 92.3125 186.86 92.3043C184.635 92.2932 182.279 92.0869 180.073 92.4351C177.31 92.871 174.671 93.6363 172.129 94.7791C171.281 95.1606 170.092 95.6151 170.028 96.8156C169.968 97.9438 170.429 97.786 171.514 98.1013C174.437 98.9515 177.062 101.076 179.613 102.727C182.325 104.482 185.014 106.434 187.506 108.492C192.281 112.438 194.818 117.856 196.695 123.693C197.666 126.712 198.292 130.208 198.45 133.373C198.625 136.895 198.095 140.395 198.161 143.906C198.176 144.736 198.09 148.039 198.683 148.59C199.134 149.007 201.526 148.451 202.191 148.445C204.972 148.42 207.757 148.605 210.483 148.611C216.245 148.623 222.104 149.435 227.918 149.441C230.844 149.444 233.69 149.203 236.583 148.786C239.272 148.399 242.587 148.531 245.086 147.415C249.896 145.267 253.089 139.587 253.589 134.645C254.131 129.289 254.112 123.424 253.302 118.007C252.877 115.167 252.523 112.467 251.991 109.653C251.396 106.504 250.705 103.362 250.032 100.246C248.871 94.8822 246.869 89.8303 246.093 84.3576C245.666 81.3472 244.995 78.1864 244.274 75.23C244.008 74.1405 243.48 72.0692 242.761 71.2105C242.006 70.3089 241.301 70.758 240.091 70.8545ZM72.5665 125.341C71.311 126.041 70.3353 127.726 70.305 129.162C70.1922 131.052 71.812 130.341 73.289 130.498C74.1882 130.593 77.4675 131.716 78.107 130.859C78.8706 129.836 76.7369 130.186 76.5045 129.599C76.0347 128.412 78.5341 128.071 78.2919 127.053C78.0497 126.034 75.4019 128.194 74.9332 126.999C74.4993 125.894 77.0903 125.115 76.7454 124.351C76.4526 123.703 73.0103 125.093 72.5665 125.341ZM78.4062 115.805C78.3519 116.611 78.0098 117.666 77.0163 117.441C75.7756 117.161 75.5391 114.737 75.4788 113.822C76.4597 110.878 78.5291 113.971 78.4062 115.805ZM116.321 92.2615C114.858 92.4018 114.656 93.0396 113.92 93.9929C113.625 93.7285 113.453 93.3909 113.404 92.98C109.887 94.3161 106.251 95.307 102.502 95.6547C98.3252 96.0426 94.0647 94.8243 89.8823 94.1821C89.3411 94.099 87.7105 93.3276 87.251 93.5678C86.8707 93.7667 86.7664 95.6202 86.715 95.9766C86.365 98.4059 86.7026 100.591 86.9192 103.001C86.9771 103.643 86.8008 105.016 87.2706 105.588C87.6011 105.991 88.2381 105.89 88.6511 106.493C89.7643 108.12 89.9608 111.154 90.3964 113.192L90.4072 113.242L90.4121 113.206C90.7058 111.172 92.2439 112.317 93.4031 112.924C95.1456 113.837 96.9963 114.38 98.9172 114.767C100.462 115.078 102.198 115.704 103.801 115.716C105.484 115.729 107.588 115.189 109.25 114.809C110.825 114.45 111.738 113.522 112.881 112.326C113.974 111.184 115.134 110.426 116.299 109.419C119.235 106.879 118.81 101.23 116.557 98.4394C118.567 97.5565 122.08 95.5617 119.247 93.1569C118.515 92.5349 117.254 92.172 116.321 92.2615ZM90.4072 113.242L90.4023 113.278L90.4185 113.293L90.4072 113.242ZM100.186 109.165C100.951 109.269 101.469 109.88 101.22 110.663C100.904 111.653 99.116 112.178 98.2375 112.182C95.9017 112.321 98.3068 108.91 100.186 109.165ZM93.0919 104.861C93.1401 105.449 93.036 105.808 93.5314 106.028C93.9102 106.196 94.6601 105.941 95.1244 106.171C95.5877 106.401 95.5956 106.524 95.8593 107.015C95.4671 108.028 93.8805 109.105 92.7005 108.412C91.2331 107.549 91.2738 104.495 91.7664 103.22C92.601 101.058 93.0197 103.983 93.0919 104.861ZM228.361 101.257C227.716 101.448 227.12 102.064 226.535 102.384C224.976 103.234 223.304 103.635 221.803 104.579C222.765 105.747 223.213 107.28 224.153 108.405C224.741 109.109 225.501 109.228 226.234 109.635C228.378 110.824 230.886 112.466 233.294 113.116C231.966 111.364 231.15 109.802 230.423 107.725C230.164 106.983 229.829 106.194 229.647 105.428C229.386 104.332 229.629 103.202 229.417 102.122C229.188 100.957 229.604 100.888 228.361 101.257ZM89.246 99.2911C89.8426 100.086 90.2342 101.82 90.231 102.789C89.3609 105.986 87.3608 101.384 87.5162 99.9384C87.6601 98.6051 88.3926 98.1555 89.246 99.2911ZM95.4924 97.886C96.5364 98.8881 96.8023 100.474 96.8392 101.773C96.8798 103.181 96.5237 103.758 95.1797 102.774C94.0031 101.912 93.5162 99.7768 93.5262 98.543C93.6098 97.141 94.4808 96.9147 95.4924 97.886ZM117.858 95.1964C118.046 96.6746 114.714 97.9836 115.38 95.726C115.361 94.2588 117.659 93.6303 117.858 95.1964ZM272.544 77.8756C269.917 80.7148 266.838 82.4333 263.638 84.5063C260.804 86.3428 258.09 88.3476 255.052 89.8311C254.16 90.267 252.729 90.4661 252.519 91.362C252.322 92.2044 253.767 94.5846 254.078 95.5292C255.127 98.7149 255.848 101.963 256.621 105.232C259.765 100.927 262.938 96.5493 266.706 92.7121C270.031 89.3258 273.446 85.7786 276.395 82.092C274.809 80.9925 273.527 79.5302 272.544 77.8756ZM290.909 72.0622C288.13 72.7506 284.959 73.0422 282.133 72.5826C280.852 72.3741 279.59 72.1889 278.293 72.031C277.323 71.9129 275.703 71.3403 274.821 72.0399C273.986 72.7011 273.997 74.117 274.349 75.0218C274.575 75.6068 274.932 75.7204 275.141 76.206C275.208 76.3625 274.966 76.6115 275.141 76.9803C275.622 77.9956 277.358 79.7477 278.316 80.3071C279.546 81.0252 279.78 80.2894 280.807 79.7011C282.969 78.4629 286.466 78.6467 288.918 78.5469C288.936 79.0734 296.151 76.978 296.876 76.5577C298.231 75.7719 299.996 71.8885 298.679 70.6277C297.09 69.1059 292.559 71.6529 290.909 72.0622ZM244.531 50.2821C243.591 51.597 242.362 52.9955 241.032 53.9418C239.531 55.0106 237.645 55.3478 235.96 56.04C234.434 56.6665 233.073 57.3043 232.065 58.6289C231.367 59.5452 230.113 60.8144 230.575 62.0763C231.048 63.3673 233.152 64.3785 234.024 65.528C235.225 67.1106 235.244 66.8151 237.202 66.5144C238.18 66.3639 239.101 66.3539 240.086 66.4472C240.484 66.4848 241.809 66.9558 242.178 66.7148C242.651 66.406 242.289 64.9851 242.379 64.446C242.515 63.6259 242.86 62.792 243.185 62.0305C244.473 59.0073 246.695 57.0955 248.876 54.8751C251.216 52.4927 254.322 50.9078 256.631 48.5117C257.906 47.1888 257.422 46.171 255.826 45.4207C255.015 45.0398 254.041 44.983 253.204 44.668C252.338 44.3422 251.585 43.7573 250.641 43.6903C246.636 43.2899 246.232 47.9027 244.531 50.2821Z" fill="#010D20"/>
</g>
<defs>
<clipPath id="clip0_28_317">
<rect width="270.82" height="133.174" fill="white" transform="translate(48.8687 27.9728) rotate(3.41426)"/>
</clipPath>
</defs>
</svg>
